<?xml version="1.0" encoding="UTF-8"?>
<svg version="1.1" xmlns="http://www.w3.org/2000/svg" width="332" height="380">
<path d="M0 0 C6.88430421 5.30259966 11.15699212 12.51763624 12.39453125 21.1328125 C12.72231709 31.17398555 10.52135061 39.61448379 3.6015625 47.0625 C-0.17634496 50.44454472 -4.307902 52.99586317 -9.11328125 54.59765625 C-9.44328125 63.17765625 -9.77328125 71.75765625 -10.11328125 80.59765625 C-7.80328125 81.25765625 -5.49328125 81.91765625 -3.11328125 82.59765625 C4.39469189 87.28263149 9.24551362 94.22553432 11.88671875 102.59765625 C13.36199791 112.93604667 11.48092604 121.25769113 5.69921875 129.84765625 C-1.33168143 136.7223142 -8.44131508 140.5229354 -18.36328125 140.97265625 C-25.86183405 140.81794058 -32.19730757 138.52329925 -38.42578125 134.41015625 C-46.53540513 125.92334056 -49.68604442 117.87890712 -49.48828125 106.13671875 C-48.58136373 97.57768462 -43.46249845 90.24429614 -37.11328125 84.59765625 C-34.02801889 82.61906408 -30.87366544 80.59765625 -27.11328125 80.59765625 C-27.60828125 67.72765625 -27.60828125 67.72765625 -28.11328125 54.59765625 C-30.75328125 53.27765625 -33.39328125 51.95765625 -36.11328125 50.59765625 C-42.82012591 46.28611325 -47.03718157 39.181582 -49.11328125 31.59765625 C-50.36536633 21.65321126 -48.9053387 13.8328655 -43.11328125 5.59765625 C-31.84129311 -7.46856222 -14.33821061 -9.51463514 0 0 Z " fill="#4285F3" transform="translate(189.11328125,43.40234375)"/>
<path d="M0 0 C2.57465029 1.2857251 5.14615196 2.57741688 7.71484375 3.875 C9.12236834 4.58338796 10.52992123 5.29171971 11.9375 6 C12.64068359 6.35578125 13.34386719 6.7115625 14.06835938 7.078125 C14.75607422 7.42359375 15.44378906 7.7690625 16.15234375 8.125 C17.0803479 8.59292969 17.0803479 8.59292969 18.02709961 9.0703125 C20.30769287 10.14499375 22.65919896 11.06367959 25 12 C25 26.52 25 41.04 25 56 C29.62 56 34.24 56 39 56 C39.33 41.48 39.66 26.96 40 12 C43.96 10.35 47.92 8.7 52 7 C55.95673474 4.6235546 55.95673474 4.6235546 59.84375 2.13671875 C62 1 62 1 66 1 C68.1831266 2.83415655 70.10893787 4.64413637 72.078125 6.6875 C72.64956238 7.26459717 73.22099976 7.84169434 73.80975342 8.4362793 C75.63276453 10.28168122 77.44138079 12.14050138 79.25 14 C80.48345184 15.25351323 81.71781632 16.50612911 82.953125 17.7578125 C85.97943861 20.82822936 88.9929146 23.9107538 92 27 C90.39140496 31.01571255 87.56359635 33.70479614 84.54052734 36.68652344 C83.98428177 37.24306107 83.42803619 37.79959869 82.85493469 38.3730011 C81.01997095 40.20657442 79.17803069 42.03296672 77.3359375 43.859375 C76.06040611 45.13117525 74.78531633 46.40341853 73.51065063 47.67608643 C70.15804605 51.02106258 66.79947827 54.35998851 63.43963623 57.69769287 C60.01082544 61.10602831 56.58768427 64.52004745 53.1640625 67.93359375 C46.44824728 74.62797297 39.72611906 81.31597466 33 88 C26.14092885 82.38062338 19.96990509 76.09685489 13.72265625 69.8203125 C12.54460742 68.64039553 11.36633534 67.46070142 10.18785095 66.28121948 C7.10652858 63.19610309 4.02822284 60.10799411 0.95056152 57.01922607 C-2.19844034 53.85994267 -5.35032171 50.70353484 -8.50195312 47.546875 C-14.6707711 41.36737473 -20.83640129 35.1847061 -27 29 C-25.14276623 24.96929876 -22.47282533 22.21715976 -19.3359375 19.140625 C-18.78386627 18.59138367 -18.23179504 18.04214233 -17.66299438 17.47625732 C-15.90498185 15.72940707 -14.1401311 13.98965399 -12.375 12.25 C-11.1792292 11.06426409 -9.98391135 9.8780712 -8.7890625 8.69140625 C-5.86459747 5.78894915 -2.93398126 2.8928359 0 0 Z " fill="#4285F2" transform="translate(138,187)"/>
<path d="M0 0 C3.71541922 0.57016339 7.43001 0.4789206 11.18115234 0.4597168 C12.31423828 0.46551758 12.31423828 0.46551758 13.47021484 0.47143555 C17.22526705 0.46498357 20.75085135 0.27383698 24.45458984 -0.3605957 C28.18115234 -0.6652832 28.18115234 -0.6652832 30.72021484 0.5222168 C31.40857422 1.1203418 32.09693359 1.7184668 32.80615234 2.3347168 C33.92376953 3.30538086 33.92376953 3.30538086 35.06396484 4.2956543 C43.66542353 12.57971599 43.66542353 12.57971599 44.18115234 18.3347168 C42.95489502 20.25558472 42.95489502 20.25558472 41.03759766 22.09594727 C40.32645813 22.79372284 39.6153186 23.49149841 38.88262939 24.2104187 C38.09942322 24.95010895 37.31621704 25.68979919 36.50927734 26.4519043 C35.7159198 27.22728546 34.92256226 28.00266663 34.10516357 28.80154419 C31.56093588 31.28559948 28.99798162 33.74903821 26.43115234 36.2097168 C23.88028255 38.66480865 21.33418179 41.12415969 18.79998779 43.59646606 C17.22194054 45.13514088 15.63411586 46.66386861 14.03546143 48.18112183 C9.7993188 52.30214484 6.74365935 55.5673005 5.18115234 61.3347168 C5.51115234 63.6447168 5.84115234 65.9547168 6.18115234 68.3347168 C-4.04884766 68.3347168 -14.27884766 68.3347168 -24.81884766 68.3347168 C-24.91119792 62.41147326 -24.99067746 56.49077546 -25.03857422 50.56738281 C-25.05856158 48.55687955 -25.08576091 46.54643346 -25.12060547 44.53613281 C-25.36464663 30.08387165 -25.31939963 17.4406221 -14.81884766 6.3347168 C-7.17574096 -1.22330893 -7.17574096 -1.22330893 0 0 Z " fill="#4285F3" transform="translate(77.81884765625,152.665283203125)"/>
<path d="M0 0 C3.80441864 0.98435363 7.67596456 0.76799808 11.58081055 0.7097168 C12.40516602 0.70907227 13.22952148 0.70842773 14.07885742 0.70776367 C17.63653154 0.68216889 20.91170032 0.54116701 24.42456055 -0.08325195 C27.01831055 -0.4777832 27.01831055 -0.4777832 29.95581055 1.0222168 C37.84244098 7.46028246 43.8618051 14.24508495 46.01831055 24.5222168 C46.10192219 26.01808121 46.13614109 27.51718771 46.13183594 29.01538086 C46.13172264 30.3362973 46.13172264 30.3362973 46.13160706 31.68389893 C46.12644577 32.62570007 46.12128448 33.56750122 46.1159668 34.5378418 C46.11455185 35.50880798 46.1131369 36.47977417 46.11167908 37.48016357 C46.10608718 40.57754615 46.09353614 43.67485611 46.08081055 46.7722168 C46.0757945 48.87377825 46.07123178 50.97534084 46.06713867 53.0769043 C46.05697183 58.2253922 46.03739475 63.37372333 46.01831055 68.5222168 C36.77831055 68.5222168 27.53831055 68.5222168 18.01831055 68.5222168 C18.01831055 66.2122168 18.01831055 63.9022168 18.01831055 61.5222168 C16.05208802 54.65621507 11.68211531 50.75448566 6.59643555 45.9206543 C4.91522594 44.28025476 3.234243 42.63962289 1.5534668 40.9987793 C-1.09748595 38.43512304 -3.75317484 35.87659583 -6.41381836 33.32299805 C-8.98559258 30.84742249 -11.53897344 28.35399228 -14.09106445 25.8581543 C-14.89614441 25.09659027 -15.70122437 24.33502625 -16.53070068 23.55038452 C-17.26186096 22.8325882 -17.99302124 22.11479187 -18.74633789 21.37524414 C-19.72204742 20.43761734 -19.72204742 20.43761734 -20.71746826 19.48104858 C-21.98168945 17.5222168 -21.98168945 17.5222168 -21.78179932 14.92398071 C-19.52144476 8.13886498 -12.85001479 3.04414783 -7.1340332 -0.89575195 C-4.39298118 -1.63698018 -2.63702127 -0.86706692 0 0 Z " fill="#4285F2" transform="translate(239.981689453125,152.477783203125)"/>
<path d="M0 0 C7.18453957 5.73095113 11.92181552 12.77456498 13.234375 21.97265625 C13.57248017 32.00674513 11.37179081 40.4813796 4.43359375 47.91015625 C-2.92583832 54.52689334 -10.42801254 56.89373112 -20.2421875 56.6875 C-28.16636628 56.04334095 -34.56600091 52.97683253 -40.26953125 47.44140625 C-46.58521391 39.75335795 -48.78025884 32.4152856 -48.58203125 22.50390625 C-47.66687465 13.53537159 -43.26671072 6.7707599 -36.57421875 0.97265625 C-26.31691842 -6.93880409 -10.64449778 -7.31007679 0 0 Z " fill="#4285F2" transform="translate(269.26953125,82.55859375)"/>
<path d="M0 0 C6.63130245 4.3358516 11.09018338 11.32892846 13.4375 18.875 C15.25731584 28.27738184 13.25030245 37.10398378 8 45 C2.63707624 52.32217857 -5.13993112 56.06754402 -14.01953125 57.48046875 C-22.72645147 57.90269162 -30.37722115 55.40665566 -37.390625 50.23828125 C-44.41364807 43.8265213 -47.44323644 35.83492285 -48.03125 26.44140625 C-47.91063518 17.01837363 -44.01523332 10.12567137 -37.8125 3.25 C-27.52670496 -6.39569192 -11.99428921 -6.73012894 0 0 Z " fill="#4285F2" transform="translate(106,82)"/>
<path d="M0 0 C3.2978479 3.21741258 4.84798616 5.93995659 5.5625 10.5 C5.46131708 14.54731694 4.83583567 18.01502959 2.15234375 21.14453125 C-2.04810915 24.72575276 -4.90390325 25.80445727 -10.41015625 25.71484375 C-14.54063486 25.27712444 -16.80616842 23.11379459 -19.6875 20.3125 C-21.89998201 16.75672535 -22.75725526 13.64159189 -22.4375 9.5 C-21.20068898 5.42579899 -19.41054247 2.41580468 -16.3125 -0.5 C-10.66585722 -2.46404966 -5.47706688 -2.38999282 0 0 Z M-13.125 5.0625 C-16.14938354 8.25036373 -16.51405548 10.13633744 -16.4375 14.5 C-15.18362994 17.58817732 -15.18362994 17.58817732 -12.4375 19.5 C-9.61037123 20.21111828 -7.26462877 20.21111828 -4.4375 19.5 C-1.69137006 17.58817732 -1.69137006 17.58817732 -0.4375 14.5 C-0.36094452 10.13633744 -0.72561646 8.25036373 -3.75 5.0625 C-7.42969393 2.92314307 -9.44530607 2.92314307 -13.125 5.0625 Z " fill="#3C3E40" transform="translate(81.4375,302.5)"/>
<path d="M0 0 C1.98 0 3.96 0 6 0 C15 21.1352459 15 21.1352459 15 26 C13.02 26 11.04 26 9 26 C8.34 24.35 7.68 22.7 7 21 C4.36 21 1.72 21 -1 21 C-1.99 23.475 -1.99 23.475 -3 26 C-5.31 26 -7.62 26 -10 26 C-8.90260205 22.78931169 -7.79587059 19.5819153 -6.6875 16.375 C-6.37876953 15.47136719 -6.07003906 14.56773437 -5.75195312 13.63671875 C-4.11004029 8.90109647 -2.38218112 4.41253241 0 0 Z M2 9 C1.67 10.98 1.34 12.96 1 15 C2.32 15 3.64 15 5 15 C4.65555119 12.52733235 4.65555119 12.52733235 4 10 C3.34 9.67 2.68 9.34 2 9 Z " fill="#3B3D40" transform="translate(205,301)"/>
<path d="M0 0 C2.31 0 4.62 0 7 0 C8.50827797 3.76757497 10.00518994 7.53956349 11.5 11.3125 C11.92925781 12.38435547 12.35851562 13.45621094 12.80078125 14.56054688 C13.40986328 16.10258789 13.40986328 16.10258789 14.03125 17.67578125 C14.40830078 18.62364502 14.78535156 19.57150879 15.17382812 20.5480957 C16 23 16 23 16 26 C14.02 26 12.04 26 10 26 C9.34 24.02 8.68 22.04 8 20 C5.03 20 2.06 20 -1 20 C-1.33 21.98 -1.66 23.96 -2 26 C-4.31 26 -6.62 26 -9 26 C-6.56696874 17.12157015 -3.29163506 8.58594775 0 0 Z M3 8 C2.34 10.31 1.68 12.62 1 15 C2.65 15 4.3 15 6 15 C5.34 12.69 4.68 10.38 4 8 C3.67 8 3.34 8 3 8 Z " fill="#F7990B" transform="translate(256,301)"/>
<path d="M0 0 C1.2065625 0.0309375 1.2065625 0.0309375 2.4375 0.0625 C2.4375 2.7025 2.4375 5.3425 2.4375 8.0625 C3.0975 7.7325 3.7575 7.4025 4.4375 7.0625 C7.8888818 6.6873498 9.73595514 6.5684012 12.6171875 8.59765625 C15.08618421 11.94086854 14.88305981 14.83361005 14.6875 18.8125 C14.66945312 19.50988281 14.65140625 20.20726562 14.6328125 20.92578125 C14.58588554 22.63861539 14.51414605 24.35073824 14.4375 26.0625 C12.7875 26.0625 11.1375 26.0625 9.4375 26.0625 C9.1075 21.7725 8.7775 17.4825 8.4375 13.0625 C6.7875 13.0625 5.1375 13.0625 3.4375 13.0625 C3.1075 17.3525 2.7775 21.6425 2.4375 26.0625 C0.4575 26.0625 -1.5225 26.0625 -3.5625 26.0625 C-3.59136751 21.91668113 -3.60925327 17.77088784 -3.625 13.625 C-3.63337891 12.44099609 -3.64175781 11.25699219 -3.65039062 10.03710938 C-3.65361328 8.91240234 -3.65683594 7.78769531 -3.66015625 6.62890625 C-3.66539307 5.58677979 -3.67062988 4.54465332 -3.67602539 3.47094727 C-3.51840588 0.12704092 -3.3607265 0.08196894 0 0 Z " fill="#3C3E41" transform="translate(126.5625,300.9375)"/>
<path d="M0 0 C2.9375 2.0625 2.9375 2.0625 5 5 C5.3125 8.8125 5.3125 8.8125 5 12 C-0.94 12.495 -0.94 12.495 -7 13 C-2.53181209 13.89363758 -1.11987948 13.89078475 3 13 C3.66 13.33 4.32 13.66 5 14 C3.63016497 17.16115776 3.0109362 17.9927092 0 20 C-4.17976235 20.30398272 -7.49374541 20.46736434 -11 18 C-13.82559534 13.76160699 -13.89480067 9.9728745 -13 5 C-9.98402588 0.14868219 -5.42167136 -0.98575843 0 0 Z M-6 5 C-6.33 5.66 -6.66 6.32 -7 7 C-5.02 7 -3.04 7 -1 7 C-1.33 6.34 -1.66 5.68 -2 5 C-3.32 5 -4.64 5 -6 5 Z " fill="#3C3E41" transform="translate(157,308)"/>
<path d="M0 0 C1.2734375 2.05859375 1.2734375 2.05859375 2 4 C0.35 4.66 -1.3 5.32 -3 6 C-2.360625 6.28875 -1.72125 6.5775 -1.0625 6.875 C1 8 1 8 2 10 C2.56338028 15.29577465 2.56338028 15.29577465 0.5 17.875 C-3.04551009 19.47047954 -6.17306773 19.58815557 -10 19 C-12.5 17.6875 -12.5 17.6875 -14 16 C-14 15.01 -14 14.02 -14 13 C-10.846632 12.29925156 -8.27275026 12 -5 12 C-6.134375 11.525625 -7.26875 11.05125 -8.4375 10.5625 C-12 9 -12 9 -13 8 C-13.56883759 2.76669415 -13.56883759 2.76669415 -11.5625 0.0625 C-7.7595692 -1.51432497 -3.88943528 -1.3740669 0 0 Z " fill="#3C3E40" transform="translate(178,309)"/>
<path d="M0 0 C3.96 0 7.92 0 12 0 C12 0.99 12 1.98 12 3 C9.03 3 6.06 3 3 3 C3 4.65 3 6.3 3 8 C5.64 8 8.28 8 11 8 C11 8.99 11 9.98 11 11 C8.36 11 5.72 11 3 11 C3 12.98 3 14.96 3 17 C4.62418745 17.08090971 6.24951745 17.13914995 7.875 17.1875 C8.77992188 17.22230469 9.68484375 17.25710938 10.6171875 17.29296875 C11.40351563 17.19628906 12.18984375 17.09960938 13 17 C15.25750812 14.32507396 15.25750812 14.32507396 14.75 12.0625 C13.97936717 9.94325972 13.0643413 7.98677042 12 6 C12.763125 6.165 13.52625 6.33 14.3125 6.5 C18.15760484 7.21536834 21.21800993 6.81772758 25 6 C24.484375 6.7425 23.96875 7.485 23.4375 8.25 C21.7932769 10.79084553 21.7932769 10.79084553 22.1875 13.0625 C23.03986879 15.09507174 23.95914244 17.0570659 25 19 C22.5625 18.625 22.5625 18.625 20 18 C19.67 17.34 19.34 16.68 19 16 C18.67386719 16.49113281 18.34773438 16.98226563 18.01171875 17.48828125 C14.88748209 19.8360086 11.55080617 19.31386213 7.8125 19.1875 C5.234375 19.125625 2.65625 19.06375 0 19 C0 12.73 0 6.46 0 0 Z " fill="#8B8B8B" transform="translate(183,337)"/>
<path d="M0 0 C2.9375 2 2.9375 2 5 4 C4.67 4.99 4.34 5.98 4 7 C1.26969007 8.2676439 0.12647354 8.04311598 -2.75 7.0625 C-3.4925 6.711875 -4.235 6.36125 -5 6 C-5.66 6.66 -6.32 7.32 -7 8 C-6.67958603 10.60280568 -6.67958603 10.60280568 -6 13 C-3.39417629 13.93065133 -2.35801776 14.14917407 0.25 13.0625 C0.8275 12.711875 1.405 12.36125 2 12 C2.99 12.66 3.98 13.32 5 14 C3.63016497 17.16115776 3.0109362 17.9927092 0 20 C-4.17976235 20.30398272 -7.49374541 20.46736434 -11 18 C-13.82559534 13.76160699 -13.89480067 9.9728745 -13 5 C-9.96858828 0.12385019 -5.44376399 -0.89079774 0 0 Z " fill="#3D3F42" transform="translate(116,308)"/>
<path d="M0 0 C1.98 0 3.96 0 6 0 C6 1.65 6 3.3 6 5 C7.32 5 8.64 5 10 5 C10 6.32 10 7.64 10 9 C8.68 9 7.36 9 6 9 C6 11.97 6 14.94 6 18 C7.32 18 8.64 18 10 18 C10.042721 19.66611905 10.04063832 21.33382885 10 23 C9.67 23.33 9.34 23.66 9 24 C5.5625 23.8125 5.5625 23.8125 2 23 C-0.13591375 19.97126056 -0.22060101 17.38283822 -0.125 13.75 C-0.09792969 12.41195313 -0.09792969 12.41195313 -0.0703125 11.046875 C-0.04710937 10.37140625 -0.02390625 9.6959375 0 9 C-0.99 9 -1.98 9 -3 9 C-3 7.68 -3 6.36 -3 5 C-2.01 5 -1.02 5 0 5 C0 3.35 0 1.7 0 0 Z " fill="#3C3E41" transform="translate(184,304)"/>
<path d="M0 0 C0 1.98 0 3.96 0 6 C-1.98 6 -3.96 6 -6 6 C-6.33 10.29 -6.66 14.58 -7 19 C-8.98 19 -10.96 19 -13 19 C-13 13.06 -13 7.12 -13 1 C-4 -0.125 -4 -0.125 0 0 Z " fill="#3C3F41" transform="translate(102,308)"/>
<path d="M0 0 C0.99 0 1.98 0 3 0 C3 6.27 3 12.54 3 19 C-6.20618557 20.45360825 -6.20618557 20.45360825 -9.625 18.5 C-11.51518621 15.0632978 -11.55212602 12.86488212 -11 9 C-9.4375 6.5 -9.4375 6.5 -7 5 C-3.25 5.25 -3.25 5.25 0 6 C0 4.02 0 2.04 0 0 Z M-6 8 C-6.66 8.66 -7.32 9.32 -8 10 C-7.67801034 13.09926819 -7.67801034 13.09926819 -7 16 C-5.16299211 16.77242269 -5.16299211 16.77242269 -3 17 C-1.06345052 15.98029682 -1.06345052 15.98029682 0 14 C-0.23043864 11.34533951 -0.23043864 11.34533951 -1 9 C-3.39719432 8.32041397 -3.39719432 8.32041397 -6 8 Z " fill="#8C8C8C" transform="translate(142,337)"/>
<path d="M0 0 C2.40346379 2.40346379 2.32083747 3.13900195 2.375 6.4375 C2.27301905 10.66631005 2.27301905 10.66631005 0.3125 13.0625 C-2.30085596 14.12196863 -4.20508215 14.23290982 -7 14 C-7.33 15.65 -7.66 17.3 -8 19 C-8.99 19 -9.98 19 -11 19 C-11 12.73 -11 6.46 -11 0 C-6.76074927 -1.05981268 -4.23664003 -0.86301927 0 0 Z M-6 2 C-8.2491908 3.82703227 -8.2491908 3.82703227 -8.25 6.5 C-8.2491908 9.17296773 -8.2491908 9.17296773 -6 11 C-3.21762345 10.59471099 -3.21762345 10.59471099 -1 9 C-0.7499227 6.54190002 -0.7499227 6.54190002 -1 4 C-1.66 3.34 -2.32 2.68 -3 2 C-3.99 2 -4.98 2 -6 2 Z " fill="#8A8A8A" transform="translate(220,343)"/>
<path d="M0 0 C0 6.27 0 12.54 0 19 C-0.99 19 -1.98 19 -3 19 C-3 17.02 -3 15.04 -3 13 C-3.9075 13.226875 -4.815 13.45375 -5.75 13.6875 C-9 14 -9 14 -11.3125 12.875 C-13.43541792 10.51620231 -13.84940338 9.16252912 -14 6 C-11.73077203 -2.13140024 -8.45763894 -0.93973766 0 0 Z M-8 2 C-10.2491908 3.82703227 -10.2491908 3.82703227 -10.25 6.5 C-10.2491908 9.17296773 -10.2491908 9.17296773 -8 11 C-5.21762345 10.59471099 -5.21762345 10.59471099 -3 9 C-2.7499227 6.54190002 -2.7499227 6.54190002 -3 4 C-3.66 3.34 -4.32 2.68 -5 2 C-5.99 2 -6.98 2 -8 2 Z " fill="#898989" transform="translate(101,343)"/>
<path d="M0 0 C1.875 1.375 1.875 1.375 3 3 C3 3.66 3 4.32 3 5 C0.36 4.67 -2.28 4.34 -5 4 C-5 4.66 -5 5.32 -5 6 C-3.69753541 6.80241122 -2.35679819 7.54333428 -1 8.25 C1.21484375 9.56640625 1.21484375 9.56640625 3 11 C3.58765005 14.33001693 3.50275341 15.99449319 2 19 C-1.39057458 19.76767726 -3.9997573 20.28954394 -7.375 19.3125 C-9.3938922 17.6818563 -9.66260373 16.530472 -10 14 C-8.68 14 -7.36 14 -6 14 C-6 14.66 -6 15.32 -6 16 C-4.35 16 -2.7 16 -1 16 C-1.03955898 14.07690578 -1.03955898 14.07690578 -2 12 C-4.95009373 10.27487535 -4.95009373 10.27487535 -8 9 C-9 8 -9 8 -9.25 5.0625 C-9.1675 4.051875 -9.085 3.04125 -9 2 C-5.53076119 -0.31282587 -4.07794425 -0.42478586 0 0 Z " fill="#888888" transform="translate(83,337)"/>
<path d="M0 0 C1.65 0 3.3 0 5 0 C5 8.58 5 17.16 5 26 C3.35 26 1.7 26 0 26 C0 17.42 0 8.84 0 0 Z " fill="#F49B1B" transform="translate(275,301)"/>
<path d="M0 0 C1.65 0 3.3 0 5 0 C5 8.58 5 17.16 5 26 C3.35 26 1.7 26 0 26 C0 17.42 0 8.84 0 0 Z " fill="#37393C" transform="translate(232,301)"/>
<path d="M0 0 C1.65 0 3.3 0 5 0 C5 8.58 5 17.16 5 26 C3.35 26 1.7 26 0 26 C0 17.42 0 8.84 0 0 Z " fill="#3A3C3F" transform="translate(223,301)"/>
<path d="M0 0 C0.99 0 1.98 0 3 0 C3 1.32 3 2.64 3 4 C3.99 4 4.98 4 6 4 C6 4.66 6 5.32 6 6 C5.01 6 4.02 6 3 6 C3 8.97 3 11.94 3 15 C3.99 14.67 4.98 14.34 6 14 C5.67 15.32 5.34 16.64 5 18 C2.525 17.01 2.525 17.01 0 16 C0 12.7 0 9.4 0 6 C-2.31 6.66 -4.62 7.32 -7 8 C-7.33 10.97 -7.66 13.94 -8 17 C-8.99 17 -9.98 17 -11 17 C-11 12.71 -11 8.42 -11 4 C-3.375 2.875 -3.375 2.875 0 4 C0 2.68 0 1.36 0 0 Z " fill="#8B8B8B" transform="translate(250,339)"/>
<path d="M0 0 C3.125 0.1875 3.125 0.1875 6.125 2.1875 C6.41796875 5.0078125 6.41796875 5.0078125 6.3125 8.3125 C6.28542969 9.40820312 6.25835937 10.50390625 6.23046875 11.6328125 C6.19566406 12.47585938 6.16085938 13.31890625 6.125 14.1875 C4.69089632 14.43704005 3.25239928 14.66142642 1.8125 14.875 C1.01199219 15.00261719 0.21148437 15.13023437 -0.61328125 15.26171875 C-2.875 15.1875 -2.875 15.1875 -4.66015625 13.86328125 C-5.875 12.1875 -5.875 12.1875 -6 9.6875 C-4.875 7.1875 -4.875 7.1875 -1.3125 5.375 C-0.178125 4.983125 0.95625 4.59125 2.125 4.1875 C0.145 4.5175 -1.835 4.8475 -3.875 5.1875 C-3.875 0.25271739 -3.875 0.25271739 0 0 Z M-0.875 8.1875 C-1.205 9.5075 -1.535 10.8275 -1.875 12.1875 C-0.225 11.8575 1.425 11.5275 3.125 11.1875 C3.125 10.1975 3.125 9.2075 3.125 8.1875 C1.805 8.1875 0.485 8.1875 -0.875 8.1875 Z " fill="#878787" transform="translate(122.875,341.8125)"/>
<path d="M0 0 C3.4375 0.8125 3.4375 0.8125 5.4375 3.8125 C5.4375 5.1325 5.4375 6.4525 5.4375 7.8125 C2.1375 7.8125 -1.1625 7.8125 -4.5625 7.8125 C-3.5725 9.2975 -3.5725 9.2975 -2.5625 10.8125 C0.9025 10.3175 0.9025 10.3175 4.4375 9.8125 C4.4375 10.8025 4.4375 11.7925 4.4375 12.8125 C1.4375 14.8125 1.4375 14.8125 -2.125 14.5625 C-5.5625 13.8125 -5.5625 13.8125 -7.5625 11.8125 C-8.53275279 8.82088725 -8.6635566 7.17461949 -7.8125 4.125 C-5.77288452 0.35171136 -4.22993784 -0.22262831 0 0 Z M-2.5625 2.8125 C-3.5525 4.2975 -3.5525 4.2975 -4.5625 5.8125 C-2.2525 5.8125 0.0575 5.8125 2.4375 5.8125 C1.7775 4.8225 1.1175 3.8325 0.4375 2.8125 C-0.5525 2.8125 -1.5425 2.8125 -2.5625 2.8125 Z " fill="#8B8B8B" transform="translate(231.5625,342.1875)"/>
<path d="M0 0 C2.42520546 2.42520546 2.68564441 3.62067741 3 7 C1.93600927 10.81263347 1.3748349 11.75011007 -2 14 C-5.68256285 13.8684799 -8.09748237 13.73329557 -11 11.375 C-12.46981805 7.88418213 -11.98413921 5.60851044 -11 2 C-7.79544215 -1.94407121 -4.63413823 -1.11562587 0 0 Z M-7 2 C-9.33391203 4.78114056 -9.33391203 4.78114056 -8.625 7.6875 C-8.41875 8.450625 -8.2125 9.21375 -8 10 C-5.60280568 10.67958603 -5.60280568 10.67958603 -3 11 C-0.7508092 9.17296773 -0.7508092 9.17296773 -0.75 6.5 C-0.7508092 3.82703227 -0.7508092 3.82703227 -3 2 C-4.32 2 -5.64 2 -7 2 Z " fill="#8B8B8B" transform="translate(164,343)"/>
<path d="M0 0 C0.33 0.99 0.66 1.98 1 3 C-2 4 -2 4 -5 4 C-3.02 4.99 -1.04 5.98 1 7 C1.1875 9.375 1.1875 9.375 1 12 C-2.8503105 14.56687367 -4.58569763 13.83288724 -9 13 C-9.33 11.68 -9.66 10.36 -10 9 C-7.69 9.33 -5.38 9.66 -3 10 C-5.8684413 7.89767656 -5.8684413 7.89767656 -9 7 C-9.33 5.02 -9.66 3.04 -10 1 C-6.1496895 -1.56687367 -4.41430237 -0.83288724 0 0 Z " fill="#8F8F8F" transform="translate(267,343)"/>
<path d="M0 0 C1.32 0 2.64 0 4 0 C4.33 3.3 4.66 6.6 5 10 C5.99 10 6.98 10 8 10 C8.66 6.7 9.32 3.4 10 0 C10.99 0 11.98 0 13 0 C13 4.29 13 8.58 13 13 C11.576875 13.20625 10.15375 13.4125 8.6875 13.625 C7.88699219 13.74101562 7.08648437 13.85703125 6.26171875 13.9765625 C4 14 4 14 1 12 C-0.57746951 8.27143571 -0.06613334 3.96800038 0 0 Z " fill="#8A8A8A" transform="translate(103,343)"/>
<path d="M0 0 C1.65 0 3.3 0 5 0 C4.0409375 1.299375 4.0409375 1.299375 3.0625 2.625 C-0.17568055 7.92384089 -0.21445311 10.92773447 1 17 C-9.23 17 -19.46 17 -30 17 C-30 15.02 -30 13.04 -30 11 C-29.34 11 -28.68 11 -28 11 C-28 12.32 -28 13.64 -28 15 C-19.42 15 -10.84 15 -2 15 C-2 12.36 -2 9.72 -2 7 C-0.4375 4.125 -0.4375 4.125 1 2 C0.67 1.34 0.34 0.68 0 0 Z " fill="#5181D2" transform="translate(83,204)"/>
<path d="M0 0 C3.74061345 0.50429736 7.46981291 0.44605031 11.23828125 0.42675781 C12.37136719 0.43255859 12.37136719 0.43255859 13.52734375 0.43847656 C17.30512911 0.43198552 20.90770979 0.24516902 24.64453125 -0.32714844 C28.23828125 -0.69824219 28.23828125 -0.69824219 30.73828125 1.23925781 C31.23328125 1.91988281 31.72828125 2.60050781 32.23828125 3.30175781 C30.25828125 3.96175781 28.27828125 4.62175781 26.23828125 5.30175781 C25.57828125 3.98175781 24.91828125 2.66175781 24.23828125 1.30175781 C23.57828125 1.63175781 22.91828125 1.96175781 22.23828125 2.30175781 C20.46005317 2.3864874 18.67865742 2.40896696 16.8984375 2.39941406 C15.83560547 2.39619141 14.77277344 2.39296875 13.67773438 2.38964844 C12.56333984 2.38126953 11.44894531 2.37289062 10.30078125 2.36425781 C8.63499023 2.35749023 8.63499023 2.35749023 6.93554688 2.35058594 C4.87376856 2.3418443 2.81199724 2.33105802 0.75024414 2.31762695 C-1.08704777 2.30602 -2.92439017 2.30175781 -4.76171875 2.30175781 C-6.10153361 1.99551441 -7.43683762 1.66724226 -8.76171875 1.30175781 C-5.25951305 -1.03304598 -3.99814894 -0.61945726 0 0 Z " fill="#4A82DB" transform="translate(77.76171875,152.6982421875)"/>
<path d="M0 0 C1.2065625 0.0309375 1.2065625 0.0309375 2.4375 0.0625 C2.4375 1.0525 2.4375 2.0425 2.4375 3.0625 C1.4475 3.3925 0.4575 3.7225 -0.5625 4.0625 C-0.8925 4.7225 -1.2225 5.3825 -1.5625 6.0625 C-0.2425 6.0625 1.0775 6.0625 2.4375 6.0625 C2.4375 6.7225 2.4375 7.3825 2.4375 8.0625 C1.1175 8.0625 -0.2025 8.0625 -1.5625 8.0625 C-1.5625 11.6925 -1.5625 15.3225 -1.5625 19.0625 C-2.5525 19.0625 -3.5425 19.0625 -4.5625 19.0625 C-4.5625 15.4325 -4.5625 11.8025 -4.5625 8.0625 C-5.2225 8.0625 -5.8825 8.0625 -6.5625 8.0625 C-6.5625 7.4025 -6.5625 6.7425 -6.5625 6.0625 C-5.9025 6.0625 -5.2425 6.0625 -4.5625 6.0625 C-4.418125 5.258125 -4.27375 4.45375 -4.125 3.625 C-3.347189 0.08163876 -3.347189 0.08163876 0 0 Z " fill="#868686" transform="translate(173.5625,336.9375)"/>
<path d="M0 0 C2.31 0 4.62 0 7 0 C7.66 2.31 8.32 4.62 9 7 C7 6 7 6 6 3 C5.01 3 4.02 3 3 3 C3.33 3.66 3.66 4.32 4 5 C3.66015625 7.1640625 3.66015625 7.1640625 3.0625 9.625 C2.86785156 10.44226563 2.67320312 11.25953125 2.47265625 12.1015625 C2.23869141 13.04128906 2.23869141 13.04128906 2 14 C3.32 14.66 4.64 15.32 6 16 C4.02 16 2.04 16 0 16 C0.33 13.36 0.66 10.72 1 8 C-1.51083114 9.25541557 -1.87125446 10.50063488 -3 13 C-4 11 -4 11 -3.22265625 8.3984375 C-2.83980469 7.40070313 -2.45695313 6.40296875 -2.0625 5.375 C-1.68222656 4.37210937 -1.30195313 3.36921875 -0.91015625 2.3359375 C-0.60980469 1.56507813 -0.30945313 0.79421875 0 0 Z " fill="#F09A1C" transform="translate(256,301)"/>
<path d="M0 0 C3.12805056 4.69207584 2.18666494 9.43732095 2 14.9375 C1.99355469 16.03513672 1.98710937 17.13277344 1.98046875 18.26367188 C1.88054365 21.29658378 1.7121505 24.0493364 1 27 C-1.8828125 29.67578125 -1.8828125 29.67578125 -5 31 C-5.94875 31.4125 -6.8975 31.825 -7.875 32.25 C-8.57625 32.4975 -9.2775 32.745 -10 33 C-9.67 34.65 -9.34 36.3 -9 38 C-9.99 38 -10.98 38 -12 38 C-12 37.34 -12 36.68 -12 36 C-13.485 36.495 -13.485 36.495 -15 37 C-13.60255454 33.69629561 -12.05641825 31.9463608 -9.1875 29.8125 C-8.52105469 29.30332031 -7.85460937 28.79414062 -7.16796875 28.26953125 C-5 27 -5 27 0 26 C0 17.42 0 8.84 0 0 Z " fill="#527FD2" transform="translate(162,98)"/>
<path d="M0 0 C0.99 0.33 1.98 0.66 3 1 C2.01 1.495 2.01 1.495 1 2 C0.56880859 2.89332031 0.56880859 2.89332031 0.12890625 3.8046875 C-1.22935662 6.4460153 -2.91859472 8.0783681 -5.0625 10.125 C-7.91571933 12.77905 -7.91571933 12.77905 -10 16 C-13.0625 16.625 -13.0625 16.625 -16 17 C-11.01595832 10.96668638 -5.58084697 5.4815829 0 0 Z " fill="#4D80D7" transform="translate(138,187)"/>
<path d="M0 0 C0.99 0.66 1.98 1.32 3 2 C3.25660094 5.07921132 3.39431504 7.21136993 2 10 C-1.39057458 10.76767726 -3.9997573 11.28954394 -7.375 10.3125 C-9.3938922 8.6818563 -9.66260373 7.530472 -10 5 C-8.68 5 -7.36 5 -6 5 C-6 5.66 -6 6.32 -6 7 C-4.35 7 -2.7 7 -1 7 C-1.020625 6.030625 -1.04125 5.06125 -1.0625 4.0625 C-1 1 -1 1 0 0 Z " fill="#8E8E8E" transform="translate(83,346)"/>
<path d="M0 0 C0.625 1.75 0.625 1.75 1 4 C0.68546875 4.5878125 0.3709375 5.175625 0.046875 5.78125 C-2.30514693 10.7661323 -1.89780547 17.43930266 -0.1015625 22.5625 C1.07211914 24.97040708 1.07211914 24.97040708 3 28 C3.66 28 4.32 28 5 28 C5.33 28.99 5.66 29.98 6 31 C5.01 32.485 5.01 32.485 4 34 C-2.61955889 26.69565916 -3.48930331 19.84952132 -3.3046875 10.30078125 C-2.92832746 6.22354744 -2.01734701 3.53035726 0 0 Z " fill="#4F82D2" transform="translate(143,54)"/>
<path d="M0 0 C0.33 0.99 0.66 1.98 1 3 C2.65 2.34 4.3 1.68 6 1 C6.33 1.66 6.66 2.32 7 3 C6.34 3 5.68 3 5 3 C4.67 4.98 4.34 6.96 4 9 C1.69 9 -0.62 9 -3 9 C-2.01 6.03 -1.02 3.06 0 0 Z " fill="#EE971B" transform="translate(250,318)"/>
<path d="M0 0 C0.99 0 1.98 0 3 0 C3 5.61 3 11.22 3 17 C0 14 0 14 -0.29296875 10.64453125 C-0.25816406 9.37996094 -0.22335937 8.11539062 -0.1875 6.8125 C-0.16042969 5.54019531 -0.13335937 4.26789063 -0.10546875 2.95703125 C-0.07066406 1.98121094 -0.03585937 1.00539063 0 0 Z " fill="#FB9903" transform="translate(276,303)"/>
<path d="M0 0 C1.98 0 3.96 0 6 0 C6 1.32 6 2.64 6 4 C9.3 4.33 12.6 4.66 16 5 C16 5.33 16 5.66 16 6 C7.78762084 6.57184845 1.53994257 5.26682231 -6 2 C-2.25 0.875 -2.25 0.875 0 2 C0 1.34 0 0.68 0 0 Z " fill="#4B80E1" transform="translate(160,178)"/>
<path d="M0 0 C2.8125 2.5625 2.8125 2.5625 5 5 C2.69 5 0.38 5 -2 5 C-2 4.01 -2 3.02 -2 2 C-8.93 2 -15.86 2 -23 2 C-23 1.67 -23 1.34 -23 1 C-21.95199219 0.93941406 -20.90398437 0.87882813 -19.82421875 0.81640625 C-18.44529952 0.73198262 -17.06639395 0.64733553 -15.6875 0.5625 C-14.99720703 0.52318359 -14.30691406 0.48386719 -13.59570312 0.44335938 C-1.03620427 -0.34540142 -1.03620427 -0.34540142 0 0 Z " fill="#4B82D9" transform="translate(269,153)"/>
<path d="M0 0 C3.96 0 7.92 0 12 0 C12 0.99 12 1.98 12 3 C9.03 3 6.06 3 3 3 C3 3.66 3 4.32 3 5 C2.01 5.33 1.02 5.66 0 6 C0 4.02 0 2.04 0 0 Z " fill="#828282" transform="translate(183,337)"/>
<path d="M0 0 C0.99 0.99 1.98 1.98 3 3 C1.55224845 6.59981466 -0.20954292 8.15103283 -3.4375 10.25 C-4.21996094 10.77078125 -5.00242188 11.2915625 -5.80859375 11.828125 C-8 13 -8 13 -11 13 C-11 12.34 -11 11.68 -11 11 C-9.9275 10.54625 -8.855 10.0925 -7.75 9.625 C-5.11937683 8.49911463 -2.53999604 7.32079794 0 6 C-0.99 5.67 -1.98 5.34 -3 5 C-1.125 1.125 -1.125 1.125 0 0 Z " fill="#4A7DE1" transform="translate(191,84)"/>
<path d="M0 0 C8.415 3.96 8.415 3.96 17 8 C17 8.33 17 8.66 17 9 C15.88625 8.979375 14.7725 8.95875 13.625 8.9375 C10.16784079 8.73619282 10.16784079 8.73619282 8 10 C7.34 9.67 6.68 9.34 6 9 C5.896875 8.38125 5.79375 7.7625 5.6875 7.125 C4.70040743 4.07398661 2.70839329 3.5278116 0 2 C0 1.34 0 0.68 0 0 Z " fill="#497FD8" transform="translate(141,189)"/>
<path d="M0 0 C0.33 0.99 0.66 1.98 1 3 C-2 4 -2 4 -5 4 C-5.99 4.33 -6.98 4.66 -8 5 C-8.66 4.67 -9.32 4.34 -10 4 C-9.625 2.0625 -9.625 2.0625 -9 0 C-5.93109813 -1.53445094 -3.29905734 -0.54984289 0 0 Z " fill="#888888" transform="translate(267,343)"/>
<path d="M0 0 C1.5625 1.25 1.5625 1.25 3 3 C2.67293479 6.8593695 0.657263 8.65974953 -2.0625 11.25 C-2.79597656 11.95640625 -3.52945313 12.6628125 -4.28515625 13.390625 C-4.85105469 13.92171875 -5.41695313 14.4528125 -6 15 C-6.5534764 12.92446352 -7 11.15634036 -7 9 C-5.68 9 -4.36 9 -3 9 C-3.33 8.34 -3.66 7.68 -4 7 C-2.68 7 -1.36 7 0 7 C0 4.69 0 2.38 0 0 Z " fill="#4A7ED7" transform="translate(119,165)"/>
<path d="M0 0 C1.32 0 2.64 0 4 0 C4.125 7.75 4.125 7.75 3 10 C2.34 10 1.68 10 1 10 C-0.60725635 6.78548731 -0.05748185 3.56387464 0 0 Z " fill="#929292" transform="translate(103,343)"/>
<path d="M0 0 C0.33 0.99 0.66 1.98 1 3 C0.01 3.495 0.01 3.495 -1 4 C-0.67 4.66 -0.34 5.32 0 6 C-3.25 7.125 -3.25 7.125 -7 8 C-8.32 7.34 -9.64 6.68 -11 6 C-7.37 4.02 -3.74 2.04 0 0 Z " fill="#4A84DB" transform="translate(197,190)"/>
<path d="M0 0 C0.33 0.66 0.66 1.32 1 2 C0.01 2.495 0.01 2.495 -1 3 C-1 4.98 -1 6.96 -1 9 C-3.46278801 10.231394 -5.2795055 10.07159196 -8 10 C-6.23915938 6.0381086 -3.9706445 1.98532225 0 0 Z " fill="#457CE3" transform="translate(233,84)"/>
<path d="M0 0 C0.66 0.33 1.32 0.66 2 1 C-1.3 4.3 -4.6 7.6 -8 11 C-8 8.29745539 -7.96569331 6.49470772 -7 4 C-5.125 2.875 -5.125 2.875 -3 2 C-2.01 1.34 -1.02 0.68 0 0 Z " fill="#4780DA" transform="translate(109,181)"/>
<path d="M0 0 C0.53625 0.268125 1.0725 0.53625 1.625 0.8125 C-0.59689824 3.03439824 -2.45982708 3.73848892 -5.375 4.8125 C-5.045 6.4625 -4.715 8.1125 -4.375 9.8125 C-5.365 9.8125 -6.355 9.8125 -7.375 9.8125 C-7.375 9.1525 -7.375 8.4925 -7.375 7.8125 C-8.365 8.1425 -9.355 8.4725 -10.375 8.8125 C-8.77644306 4.49639627 -4.93422816 -0.38954433 0 0 Z " fill="#4983DD" transform="translate(157.375,126.1875)"/>
<path d="M0 0 C0.99 0 1.98 0 3 0 C3 1.32 3 2.64 3 4 C3.99 4 4.98 4 6 4 C6 4.66 6 5.32 6 6 C0.25 7.125 0.25 7.125 -2 6 C-2 5.34 -2 4.68 -2 4 C-1.34 4 -0.68 4 0 4 C0 2.68 0 1.36 0 0 Z " fill="#848484" transform="translate(250,339)"/>
<path d="M0 0 C1.24546405 2.49092811 0.7767578 3.41080733 0 6 C0.66 6.33 1.32 6.66 2 7 C2.625 9.5625 2.625 9.5625 3 12 C1.02 10.35 -0.96 8.7 -3 7 C-2.25 2.25 -2.25 2.25 0 0 Z " fill="#4980D8" transform="translate(221,163)"/>
<path d="M0 0 C1.89492187 0.01353516 1.89492187 0.01353516 3.828125 0.02734375 C4.79234375 0.03894531 5.7565625 0.05054687 6.75 0.0625 C6.75 0.3925 6.75 0.7225 6.75 1.0625 C5.59371094 1.15337891 5.59371094 1.15337891 4.4140625 1.24609375 C2.90972656 1.37177734 2.90972656 1.37177734 1.375 1.5 C-0.12160156 1.62181641 -0.12160156 1.62181641 -1.6484375 1.74609375 C-4.22927613 1.91215626 -4.22927613 1.91215626 -6.25 3.0625 C-8.9223621 3.19665472 -11.57250488 3.10568541 -14.25 3.0625 C-9.43910622 -0.14476252 -5.75185764 -0.05325794 0 0 Z " fill="#4E81D8" transform="translate(252.25,77.9375)"/>
<path d="M0 0 C5.40489519 1.52012677 8.98492628 5.27385218 13 9 C12.67 9.66 12.34 10.32 12 11 C11.319375 10.236875 10.63875 9.47375 9.9375 8.6875 C6.64101475 5.67156669 4.13693165 4.54120983 0 3 C0 2.01 0 1.02 0 0 Z " fill="#4F7FD5" transform="translate(182,125)"/>
<path d="M0 0 C0.99 0.33 1.98 0.66 3 1 C2.67 1.99 2.34 2.98 2 4 C-1.96 4 -5.92 4 -10 4 C-9.67 3.34 -9.34 2.68 -9 2 C-6.36 2 -3.72 2 -1 2 C-0.67 1.34 -0.34 0.68 0 0 Z " fill="#858585" transform="translate(197,352)"/>
<path d="M0 0 C2.31 0 4.62 0 7 0 C7.66 2.31 8.32 4.62 9 7 C7 6 7 6 6 3 C2.06924356 3.57452746 2.06924356 3.57452746 -1 6 C-0.67 4.02 -0.34 2.04 0 0 Z " fill="#E59930" transform="translate(256,301)"/>
<path d="M0 0 C0.99 0 1.98 0 3 0 C3 1.32 3 2.64 3 4 C4.32 4.33 5.64 4.66 7 5 C7 5.66 7 6.32 7 7 C4.03 6.505 4.03 6.505 1 6 C0.67 4.02 0.34 2.04 0 0 Z " fill="#8C8C8C" transform="translate(117,350)"/>
<path d="M0 0 C0.763125 0.350625 1.52625 0.70125 2.3125 1.0625 C5.04759379 2.32360884 5.04759379 2.32360884 8 1 C8 2.32 8 3.64 8 5 C9.32 5 10.64 5 12 5 C12 5.66 12 6.32 12 7 C7.48292068 6.4685789 4.61312423 4.70984317 1 2 C0.67 1.34 0.34 0.68 0 0 Z " fill="#4D82D9" transform="translate(68,130)"/>
<path d="M0 0 C2.72957339 2.35735884 3.88893396 4.58133526 5 8 C5 8.99 5 9.98 5 11 C4.34 11 3.68 11 3 11 C2.71125 10.38125 2.4225 9.7625 2.125 9.125 C1.06279958 6.86674235 1.06279958 6.86674235 -1 5 C-0.625 2.375 -0.625 2.375 0 0 Z " fill="#4C82DB" transform="translate(280,165)"/>
<path d="M0 0 C0.556875 0.391875 1.11375 0.78375 1.6875 1.1875 C0.6975 1.1875 -0.2925 1.1875 -1.3125 1.1875 C-1.3125 1.8475 -1.3125 2.5075 -1.3125 3.1875 C-0.6525 3.5175 0.0075 3.8475 0.6875 4.1875 C0.0275 4.1875 -0.6325 4.1875 -1.3125 4.1875 C-1.6425 4.8475 -1.9725 5.5075 -2.3125 6.1875 C-2.9725 5.1975 -3.6325 4.2075 -4.3125 3.1875 C-6.2925 4.1775 -6.2925 4.1775 -8.3125 5.1875 C-7.3125 2.1875 -7.3125 2.1875 -5 0.375 C-2.3125 -0.8125 -2.3125 -0.8125 0 0 Z " fill="#437BE2" transform="translate(237.3125,151.8125)"/>
<path d="M0 0 C2.125 0.9375 2.125 0.9375 4 2 C3.01 2.33 2.02 2.66 1 3 C0.67 3.99 0.34 4.98 0 6 C-1.98 6 -3.96 6 -6 6 C-2.25 1.125 -2.25 1.125 0 0 Z " fill="#4A82E0" transform="translate(74,81)"/>
<path d="M0 0 C0.33 0 0.66 0 1 0 C1 2.97 1 5.94 1 9 C0.01 9 -0.98 9 -2 9 C-2.125 5.625 -2.125 5.625 -2 2 C-1.34 1.34 -0.68 0.68 0 0 Z " fill="#8D8D8D" transform="translate(171,347)"/>
<path d="M0 0 C0 0.99 0 1.98 0 3 C-6.93 2.505 -6.93 2.505 -14 2 C-14 1.67 -14 1.34 -14 1 C-9.27616037 0.34843591 -4.78025483 -0.11950637 0 0 Z " fill="#4890E3" transform="translate(179,243)"/>
<path d="M0 0 C2.76125398 3.22146298 4.56935081 6.01462013 6 10 C6.65213539 11.34050052 7.31379969 12.67661368 8 14 C3.92861736 11.13902842 1.83655816 8.63972588 0 4 C0 2.68 0 1.36 0 0 Z " fill="#537FD2" transform="translate(141,160)"/>
<path d="M0 0 C0.66 0.33 1.32 0.66 2 1 C1.59007812 1.47050781 1.18015625 1.94101562 0.7578125 2.42578125 C-0.05042969 3.35970703 -0.05042969 3.35970703 -0.875 4.3125 C-1.40867188 4.92738281 -1.94234375 5.54226562 -2.4921875 6.17578125 C-4.1640447 8.13498212 -4.1640447 8.13498212 -6 11 C-6.66 11 -7.32 11 -8 11 C-6.52670958 5.99081256 -3.72484762 3.48192278 0 0 Z " fill="#4F7FD1" transform="translate(152,43)"/>
<path d="M0 0 C0.66 0.33 1.32 0.66 2 1 C-0.23407889 4.35111834 -1.26215824 5.81553956 -5.25 6.8125 C-6.61125 6.9053125 -6.61125 6.9053125 -8 7 C-3.76744186 1.25581395 -3.76744186 1.25581395 0 0 Z " fill="#4983E2" transform="translate(130,197)"/>
<path d="M0 0 C1.65 0 3.3 0 5 0 C5 0.99 5 1.98 5 3 C3.02 3.66 1.04 4.32 -1 5 C-1.33 4.01 -1.66 3.02 -2 2 C-1.34 2 -0.68 2 0 2 C0 1.34 0 0.68 0 0 Z " fill="#909090" transform="translate(92,342)"/>
<path d="M0 0 C4.95 0.99 4.95 0.99 10 2 C10 2.66 10 3.32 10 4 C3.375 3.375 3.375 3.375 0 0 Z " fill="#507ED5" transform="translate(236,134)"/>
<path d="M0 0 C1.9375 0.3125 1.9375 0.3125 4 1 C4.33 1.99 4.66 2.98 5 4 C4.01 5.485 4.01 5.485 3 7 C1.5 5.75 1.5 5.75 0 4 C0 2.68 0 1.36 0 0 Z " fill="#4A83DF" transform="translate(144,81)"/>
<path d="M0 0 C1.65 0 3.3 0 5 0 C5 0.99 5 1.98 5 3 C1.25 4.125 1.25 4.125 -1 3 C-0.67 2.01 -0.34 1.02 0 0 Z " fill="#7C7C7C" transform="translate(171,337)"/>
<path d="M0 0 C0 0.66 0 1.32 0 2 C0.66 2 1.32 2 2 2 C1.67 2.66 1.34 3.32 1 4 C-0.32 4 -1.64 4 -3 4 C-3.66 3.01 -4.32 2.02 -5 1 C-2 0 -2 0 0 0 Z " fill="#4B85E9" transform="translate(156,90)"/>
<path d="M0 0 C0.99 0.33 1.98 0.66 3 1 C2.67 2.65 2.34 4.3 2 6 C1.01 5.01 0.02 4.02 -1 3 C-0.67 2.01 -0.34 1.02 0 0 Z " fill="#979797" transform="translate(74,350)"/>
<path d="M0 0 C3.16115776 1.36983503 3.9927092 1.9890638 6 5 C3.36 4.34 0.72 3.68 -2 3 C-1.34 2.01 -0.68 1.02 0 0 Z " fill="#507DD5" transform="translate(201,187)"/>
</svg>
