<?xml version="1.0" encoding="UTF-8"?>
<svg version="1.1" xmlns="http://www.w3.org/2000/svg" width="499" height="181">
<path d="M0 0 C5.42774612 4.79661285 9.57306439 8.94542926 10.6875 16.375 C10.77626506 25.06129549 8.95060509 29.801123 3.0625 36.25 C0.6875 38.375 0.6875 38.375 -1.3125 38.375 C-1.30647741 41.27487498 -1.25900993 44.1641132 -1.1875 47.0625 C-1.19007813 47.87912109 -1.19265625 48.69574219 -1.1953125 49.53710938 C-1.11538739 54.08855173 -1.11538739 54.08855173 0.99975586 57.96069336 C2.50061415 59.17903715 4.09282749 60.28231669 5.6875 61.375 C9.60213935 66.77085424 10.94304617 71.68991227 10.6875 78.375 C9.27983744 86.1233727 5.75391364 90.71744151 -0.125 95.8125 C-6.09515092 98.94913558 -13.92745911 97.50216194 -20.3125 96.375 C-23.38322133 95.21417804 -25.19259214 93.85653921 -27.3125 91.375 C-27.81265625 90.84132813 -28.3128125 90.30765625 -28.828125 89.7578125 C-32.92995262 84.50657164 -32.83890503 79.21396456 -32.78125 72.7421875 C-32.01097878 67.20907258 -29.71812225 63.35670629 -25.75 59.5 C-25.15058594 58.90445313 -24.55117188 58.30890625 -23.93359375 57.6953125 C-22.3125 56.375 -22.3125 56.375 -20.3125 56.375 C-19.7669416 46.3356744 -19.7669416 46.3356744 -22.796875 37.15625 C-24.58003116 35.78459142 -26.42047387 34.58953206 -28.3125 33.375 C-32.80831497 27.84168927 -32.97862826 22.80363164 -32.76171875 15.7578125 C-31.93255036 9.51381404 -28.94027514 5.70016928 -24.4375 1.5 C-16.96368169 -3.58219645 -8.10032764 -3.97374563 0 0 Z " fill="#4285F3" transform="translate(405.3125,8.625)"/>
<path d="M0 0 C1.75129657 1.10210905 3.50098464 2.20677432 5.25 3.3125 C6.22453125 3.92738281 7.1990625 4.54226562 8.203125 5.17578125 C9.58757812 6.07876953 9.58757812 6.07876953 11 7 C11.76602539 7.45221924 12.53205078 7.90443848 13.32128906 8.37036133 C15.7407789 10.71912437 15.54191715 12.43941956 15.609375 15.76171875 C15.64160156 16.87998047 15.67382812 17.99824219 15.70703125 19.15039062 C15.72121094 20.31763672 15.73539062 21.48488281 15.75 22.6875 C15.77964844 23.86634766 15.80929687 25.04519531 15.83984375 26.25976562 C15.91061656 29.17324632 15.96327725 32.08592336 16 35 C17.81242052 35.02687279 19.62495233 35.04633715 21.4375 35.0625 C22.44683594 35.07410156 23.45617187 35.08570313 24.49609375 35.09765625 C26.94021067 35.28612676 26.94021067 35.28612676 28 34 C28.15764405 32.22130274 28.25100677 30.43681524 28.31640625 28.65234375 C28.37924805 27.03295898 28.37924805 27.03295898 28.44335938 25.38085938 C28.48267578 24.24455078 28.52199219 23.10824219 28.5625 21.9375 C28.60568359 20.79732422 28.64886719 19.65714844 28.69335938 18.48242188 C28.79982839 15.65507805 28.90184207 12.82764262 29 10 C29.67981934 9.67169189 30.35963867 9.34338379 31.06005859 9.00512695 C31.95547363 8.56644287 32.85088867 8.12775879 33.7734375 7.67578125 C34.65950684 7.24434814 35.54557617 6.81291504 36.45849609 6.3684082 C39.74491905 4.59891726 42.26180871 2.52201829 45 0 C49.08125856 1.61691866 51.80607719 4.54270532 54.8125 7.625 C55.34004883 8.15899414 55.86759766 8.69298828 56.41113281 9.24316406 C60.4410985 13.35219713 64.30955824 17.5818655 68 22 C66.51657 25.44677 64.56949812 27.67343301 61.91748047 30.30957031 C61.07675995 31.15013977 60.23603943 31.99070923 59.36984253 32.85675049 C58.00727829 34.20383087 58.00727829 34.20383087 56.6171875 35.578125 C55.68778351 36.5046991 54.75837952 37.43127319 53.80081177 38.38592529 C51.3359615 40.84315789 48.86516334 43.29432361 46.39306641 45.7442627 C43.86909235 48.24773809 41.35080612 50.75692063 38.83203125 53.265625 C33.89356403 58.18267525 28.948788 63.09333788 24 68 C20.55323 66.51657 18.32656699 64.56949812 15.69042969 61.91748047 C14.84986023 61.07675995 14.00929077 60.23603943 13.14324951 59.36984253 C12.24519592 58.46146637 11.34714233 57.55309021 10.421875 56.6171875 C9.4953009 55.68778351 8.56872681 54.75837952 7.61407471 53.80081177 C5.15684211 51.3359615 2.70567639 48.86516334 0.2557373 46.39306641 C-2.24773809 43.86909235 -4.75692063 41.35080612 -7.265625 38.83203125 C-12.18267525 33.89356403 -17.09333788 28.948788 -22 24 C-20.30145963 20.37916872 -18.28895218 18.05744646 -15.4296875 15.234375 C-14.08583984 13.90019531 -14.08583984 13.90019531 -12.71484375 12.5390625 C-11.77769531 11.61867188 -10.84054687 10.69828125 -9.875 9.75 C-8.92011363 8.80515144 -7.96568141 7.85984367 -7.01171875 6.9140625 C-4.67890913 4.60481662 -2.34155914 2.30036797 0 0 Z " fill="#4285F2" transform="translate(371,103)"/>
<path d="M0 0 C5.56231729 1.44907045 10.84283688 0.62830443 16.06640625 -1.625 C18.87890625 -2.25 18.87890625 -2.25 22.37890625 -0.5 C26.61567603 2.94059828 30.01751539 7.6165678 31.87890625 12.75 C30.65682196 15.93948107 28.79999159 18.12248131 26.46484375 20.578125 C25.78550781 21.29613281 25.10617187 22.01414062 24.40625 22.75390625 C23.69597656 23.49511719 22.98570312 24.23632812 22.25390625 25 C21.56683594 25.72574219 20.87976563 26.45148438 20.171875 27.19921875 C14.49576479 33.17351111 14.49576479 33.17351111 11.53613281 35.93945312 C10.79588867 36.63490234 10.05564453 37.33035156 9.29296875 38.046875 C8.61443848 38.66401367 7.9359082 39.28115234 7.23681641 39.91699219 C5.633469 41.64743598 5.633469 41.64743598 6.10302734 43.79394531 C6.35906738 44.43944336 6.61510742 45.08494141 6.87890625 45.75 C7.20890625 46.74 7.53890625 47.73 7.87890625 48.75 C8.53890625 48.75 9.19890625 48.75 9.87890625 48.75 C9.87890625 49.41 9.87890625 50.07 9.87890625 50.75 C-0.68109375 50.75 -11.24109375 50.75 -22.12109375 50.75 C-22.21334213 45.76858737 -22.29284661 40.79018264 -22.34082031 35.80859375 C-22.36083435 34.11708489 -22.38805448 32.42564433 -22.42285156 30.734375 C-22.4718244 28.29149446 -22.49416408 25.84953489 -22.51171875 23.40625 C-22.53236389 22.66008423 -22.55300903 21.91391846 -22.57427979 21.1451416 C-22.57748957 13.49429491 -19.35089286 7.28743435 -14.12109375 1.75 C-9.04665891 -3.20066814 -6.1617622 -2.01200398 0 0 Z " fill="#4185F3" transform="translate(335.12109375,82.25)"/>
<path d="M0 0 C1.09054687 0.31066406 2.18109375 0.62132813 3.3046875 0.94140625 C10.557928 2.77083469 15.74151396 2.24884385 22.9296875 0.69140625 C26.1796875 0.50390625 26.1796875 0.50390625 28.8046875 2.00390625 C36.72848994 10.34475093 39.32663316 18.11862254 39.27734375 29.65234375 C39.27484619 30.85552246 39.27234863 32.05870117 39.26977539 33.29833984 C39.26067139 34.80992676 39.25156738 36.32151367 39.2421875 37.87890625 C39.2215625 42.70515625 39.2009375 47.53140625 39.1796875 52.50390625 C28.6196875 52.50390625 18.0596875 52.50390625 7.1796875 52.50390625 C9.1596875 50.02890625 9.1596875 50.02890625 11.1796875 47.50390625 C11.32092254 43.3453954 10.43937392 41.81249635 7.75537109 38.62304688 C6.70778094 37.62323537 5.64792623 36.63616522 4.578125 35.66015625 C3.43729657 34.56792077 2.29667782 33.47546626 1.15625 32.3828125 C-0.64701656 30.68541768 -2.45572191 28.99422962 -4.26953125 27.30810547 C-6.02266721 25.66953181 -7.75392529 24.0101212 -9.484375 22.34765625 C-10.03324371 21.85060181 -10.58211243 21.35354736 -11.14761353 20.84143066 C-12.65478516 19.38476562 -12.65478516 19.38476562 -14.8203125 16.50390625 C-14.73271567 11.62372343 -13.24469784 9.25874782 -9.9453125 5.75390625 C-9.24664062 4.9959375 -8.54796875 4.23796875 -7.828125 3.45703125 C-3.61975324 -0.6367156 -3.61975324 -0.6367156 0 0 Z " fill="#4285F2" transform="translate(435.8203125,80.49609375)"/>
<path d="M0 0 C5.74030722 3.32395613 9.62027381 8.16064957 11.6875 14.4375 C12.59334676 21.48414516 12.05913748 27.68534542 7.6875 33.4375 C3.49133922 37.78563441 0.01045451 41.20680089 -6.23828125 41.640625 C-17.89661215 41.80198598 -17.89661215 41.80198598 -22.3125 38.4375 C-27.88846109 32.95644888 -31.57070298 28.19567423 -31.6875 20.125 C-31.54262338 13.78451731 -30.02806827 9.32681316 -25.6640625 4.68359375 C-18.45222481 -1.85115 -9.18879168 -4.1172855 0 0 Z " fill="#4285F3" transform="translate(457.3125,34.5625)"/>
<path d="M0 0 C5.74030722 3.32395613 9.62027381 8.16064957 11.6875 14.4375 C12.60656294 21.5869547 11.90086903 27.51285493 7.6875 33.4375 C4.46326155 37.40375497 1.6340922 39.87654367 -3.3125 41.4375 C-9.9216315 42.07442506 -16.83027763 42.61443133 -22.3125 38.4375 C-27.88846109 32.95644888 -31.57070298 28.19567423 -31.6875 20.125 C-31.54262338 13.78451731 -30.02806827 9.32681316 -25.6640625 4.68359375 C-18.45222481 -1.85115 -9.18879168 -4.1172855 0 0 Z " fill="#4385F0" transform="translate(350.3125,34.5625)"/>
<path d="M0 0 C1.7734375 0.05859375 1.7734375 0.05859375 4 1 C4.9199992 2.65058681 5.82777474 4.31061633 6.63891602 6.01733398 C11.34977173 15.78778171 17.42452881 19.08863927 27.37890625 22.77734375 C29.17134766 23.38255859 29.17134766 23.38255859 31 24 C31 25.32 31 26.64 31 28 C28.39869373 29.1734316 25.79431492 30.33892508 23.1875 31.5 C22.44951172 31.83386719 21.71152344 32.16773438 20.95117188 32.51171875 C19.88286133 32.98544922 19.88286133 32.98544922 18.79296875 33.46875 C18.1383667 33.76201172 17.48376465 34.05527344 16.80932617 34.35742188 C15 35 15 35 12 35 C11.74476563 35.69480469 11.48953125 36.38960937 11.2265625 37.10546875 C9.85034172 40.35317449 8.17460687 43.27982916 6.375 46.3125 C5.74335938 47.38113281 5.11171875 48.44976562 4.4609375 49.55078125 C3.73777344 50.76314453 3.73777344 50.76314453 3 52 C1.1953125 51.4140625 1.1953125 51.4140625 -1 50 C-2.10337183 47.82184111 -3.13555745 45.60722064 -4.125 43.375 C-7.88288569 35.77772529 -13.13771459 33.27590786 -20.91650391 30.48583984 C-21.68526855 30.20949707 -22.4540332 29.9331543 -23.24609375 29.6484375 C-23.94404053 29.42333496 -24.6419873 29.19823242 -25.36108398 28.96630859 C-27 28 -27 28 -27.73461914 25.89697266 C-27.82219482 25.27097168 -27.90977051 24.6449707 -28 24 C-27.47156494 23.84144531 -26.94312988 23.68289062 -26.39868164 23.51953125 C-13.41813522 19.42326264 -13.41813522 19.42326264 -4.44506836 9.71484375 C-2.81227576 6.52176454 -1.34421033 3.32621415 0 0 Z " fill="#F9BC09" transform="translate(263,38)"/>
<path d="M0 0 C3.78443516 2.69610086 6.30988589 5.82809517 7.79296875 10.27734375 C8.30045792 16.49408604 8.56495205 22.04523788 4.79296875 27.27734375 C-0.02696631 32.10867346 -3.54272654 34.41154616 -10.51953125 34.52734375 C-15.19101995 34.46579581 -18.31200046 34.0595086 -22.20703125 31.27734375 C-26.80667383 26.46862651 -29.23002703 22.59614897 -29.58203125 15.96484375 C-29.42707007 9.76639636 -27.17953529 5.19927076 -22.76953125 0.90234375 C-15.29746346 -3.8360407 -7.81256615 -4.38189838 0 0 Z M-20.01953125 8.90234375 C-21.89290911 12.64909946 -21.98605682 16.1839185 -21.20703125 20.27734375 C-19.48798373 23.34616191 -17.39988958 25.68091459 -14.20703125 27.27734375 C-9.24568672 27.65178485 -6.09380884 27.51632508 -2.20703125 24.27734375 C0.15427941 20.89279847 1.05401548 18.28410167 0.79296875 14.21484375 C0.01578306 9.94441289 -1.60569829 7.80593923 -5.20703125 5.27734375 C-11.49647927 3.2316849 -15.26674749 4.64122727 -20.01953125 8.90234375 Z " fill="#3D3F42" transform="translate(58.20703125,98.72265625)"/>
<path d="M0 0 C1.19625 0.12375 2.3925 0.2475 3.625 0.375 C6.28537267 3.96260489 7.75128227 7.98103482 9.32421875 12.13671875 C9.5641304 12.76858597 9.80404205 13.40045319 10.05122375 14.0514679 C10.55348037 15.37759144 11.05338037 16.70460972 11.55102539 18.0324707 C12.31492673 20.06896945 13.08755883 22.1019985 13.86132812 24.13476562 C17.625 34.09715425 17.625 34.09715425 17.625 36.375 C14.985 36.375 12.345 36.375 9.625 36.375 C6.625 30.625 6.625 30.625 6.625 28.375 C2.665 28.705 -1.295 29.035 -5.375 29.375 C-5.87 31.0765625 -5.87 31.0765625 -6.375 32.8125 C-7.17578125 34.75 -7.17578125 34.75 -8.375 36.375 C-11.16700866 37.344218 -13.36897579 37.32572091 -16.375 37.375 C-15.81045639 32.3730479 -14.70624582 28.0784257 -12.90625 23.3828125 C-12.66588013 22.7514035 -12.42551025 22.11999451 -12.17785645 21.4694519 C-11.67357687 20.14889996 -11.16584414 18.82966186 -10.65478516 17.51171875 C-9.87007658 15.48729838 -9.09631545 13.45894734 -8.32421875 11.4296875 C-4.12154351 0.45794928 -4.12154351 0.45794928 0 0 Z M-0.375 11.375 C-1.365 14.675 -2.355 17.975 -3.375 21.375 C-1.065 21.375 1.245 21.375 3.625 21.375 C3.34372579 19.89382199 3.04966268 18.41506751 2.75 16.9375 C2.50636719 15.70193359 2.50636719 15.70193359 2.2578125 14.44140625 C2.04898438 13.75949219 1.84015625 13.07757813 1.625 12.375 C0.965 12.045 0.305 11.715 -0.375 11.375 Z " fill="#F5BD18" transform="translate(245.375,95.625)"/>
<path d="M0 0 C2.31 0 4.62 0 7 0 C7.33 3.3 7.66 6.6 8 10 C8.99 9.67 9.98 9.34 11 9 C15.15960211 8.61485166 17.29849613 8.55774756 20.875 10.8125 C23.87290426 13.89857792 24.12534805 16.32314073 24.09765625 20.44921875 C24.09443359 21.29677734 24.09121094 22.14433594 24.08789062 23.01757812 C24.07951172 23.89865234 24.07113281 24.77972656 24.0625 25.6875 C24.05798828 26.58017578 24.05347656 27.47285156 24.04882812 28.39257812 C24.03704983 30.59511987 24.02060164 32.79752599 24 35 C21.36 35 18.72 35 16 35 C15.67 29.39 15.34 23.78 15 18 C13.35 17.67 11.7 17.34 10 17 C7.59880941 20.60178588 7.56228678 23.50866369 7.375 27.6875 C7.33632812 28.38939453 7.29765625 29.09128906 7.2578125 29.81445312 C7.1637666 31.54254655 7.0808032 33.27123675 7 35 C4.69 35 2.38 35 0 35 C0 23.45 0 11.9 0 0 Z " fill="#3C3F42" transform="translate(118,97)"/>
<path d="M0 0 C2.57849697 2.13646891 3.85620854 3.72950925 5.1875 6.8125 C5.1875 9.1225 5.1875 11.4325 5.1875 13.8125 C-0.7525 13.8125 -6.6925 13.8125 -12.8125 13.8125 C-12.4825 15.1325 -12.1525 16.4525 -11.8125 17.8125 C-6.71531122 18.9394298 -6.71531122 18.9394298 -1.875 17.375 C-1.194375 16.859375 -0.51375 16.34375 0.1875 15.8125 C1.8375 16.8025 3.4875 17.7925 5.1875 18.8125 C3.27113923 22.45358546 2.03203475 24.30752198 -1.8125 25.8125 C-6.66534258 26.50118723 -10.71805225 26.27017815 -15.25 24.375 C-18.72814769 20.89685231 -20.1101613 17.66502195 -20.8125 12.8125 C-20.61360717 8.17166732 -19.33901275 5.44701537 -16.375 1.875 C-11.51970454 -2.03292074 -5.63687569 -2.38001418 0 0 Z M-11.8125 6.8125 C-11.8125 7.4725 -11.8125 8.1325 -11.8125 8.8125 C-8.5125 8.8125 -5.2125 8.8125 -1.8125 8.8125 C-2.8025 7.4925 -3.7925 6.1725 -4.8125 4.8125 C-8.85872502 4.44269987 -8.85872502 4.44269987 -11.8125 6.8125 Z " fill="#3B3E41" transform="translate(165.8125,107.1875)"/>
<path d="M0 0 C2.48499784 2.22792909 3.92313678 3.80986467 5.1875 6.9375 C7.78623944 11.32847354 11.48527236 12.86094665 16 15 C15.734375 16.89453125 15.734375 16.89453125 15 19 C13.328125 19.94921875 13.328125 19.94921875 11.25 20.6875 C6.61357104 22.74813509 5.10941153 25.584439 3.0078125 30.07421875 C2 32 2 32 0 33 C-2.50723038 30.97033731 -3.0900977 29.72470147 -4.125 26.5625 C-5.12895727 23.97305831 -5.78430259 23.13226365 -8.19140625 21.65625 C-10.43804601 20.67180691 -12.67646944 19.78425245 -15 19 C-15 16.75 -15 16.75 -14 14 C-12.328125 13.09375 -12.328125 13.09375 -10.25 12.25 C-4.93666696 9.95105339 -3.37633251 6.02803403 -1 1 C-0.67 0.67 -0.34 0.34 0 0 Z " fill="#F9BC05" transform="translate(240,16)"/>
<path d="M0 0 C2.25315168 1.91176506 2.76299983 2.8548317 3.0625 5.75 C1.0825 6.41 -0.8975 7.07 -2.9375 7.75 C-3.5975 7.09 -4.2575 6.43 -4.9375 5.75 C-6.2575 5.75 -7.5775 5.75 -8.9375 5.75 C-9.2675 6.41 -9.5975 7.07 -9.9375 7.75 C-9.34582031 7.84796875 -8.75414062 7.9459375 -8.14453125 8.046875 C-3.2149595 8.97971403 0.70562778 9.74341057 4.0625 13.75 C4.625 17.25 4.625 17.25 4.0625 20.75 C2.19541495 23.11497439 0.74188569 24.41030715 -1.9375 25.75 C-6.53866399 26.17346996 -10.66529823 26.24330273 -15 24.5625 C-17.35479253 22.35962957 -17.68060052 20.91842693 -17.9375 17.75 C-15.1875 16.5625 -15.1875 16.5625 -11.9375 15.75 C-9.875 17.125 -9.875 17.125 -7.9375 18.75 C-5.26988236 19.00124826 -5.26988236 19.00124826 -2.9375 18.75 C-3.78618226 16.49710315 -3.78618226 16.49710315 -6.37109375 15.78515625 C-8.3705783 15.13772887 -10.37057797 14.49189015 -12.37109375 13.84765625 C-14.9375 12.75 -14.9375 12.75 -16.9375 9.75 C-17.49179864 3.5418552 -17.49179864 3.5418552 -15.625 0.875 C-10.86906251 -2.29562499 -5.07653818 -2.16022901 0 0 Z " fill="#3D3F43" transform="translate(191.9375,107.25)"/>
<path d="M0 0 C2.96385367 2.04647039 3.69849738 3.38444031 4.625 6.8125 C2.32721327 8.2075848 1.1457033 8.88688619 -1.5625 8.5 C-3.375 7.8125 -3.375 7.8125 -4.375 6.8125 C-6.71444736 7.09980055 -9.0489143 7.43186779 -11.375 7.8125 C-12.57488045 13.09449593 -12.57488045 13.09449593 -10.375 17.8125 C-7.375 18.22916667 -7.375 18.22916667 -4.375 17.8125 C-3.715 17.1525 -3.055 16.4925 -2.375 15.8125 C0.24080479 16.1394756 2.26578137 16.63289068 4.625 17.8125 C4.31961464 20.66276332 3.58051924 21.86415508 1.6875 24.0625 C-2.69594097 26.56732341 -6.43781282 26.45338487 -11.375 25.8125 C-15.30687741 24.52570376 -16.85239326 23.54414943 -19.25 20.1875 C-21.01841885 14.88224346 -21.41633096 10.09351067 -19.0625 4.9375 C-13.86836305 -1.60326505 -7.9038139 -2.78097156 0 0 Z " fill="#3C3F42" transform="translate(109.375,107.1875)"/>
<path d="M0 0 C2.31 0 4.62 0 7 0 C7 2.31 7 4.62 7 7 C8.98 7 10.96 7 13 7 C13 8.98 13 10.96 13 13 C11.02 13 9.04 13 7 13 C7.33 17.29 7.66 21.58 8 26 C9.65 25.67 11.3 25.34 13 25 C13.04241723 27.33294775 13.04092937 29.66702567 13 32 C12 33 12 33 8.75 33.375 C5 33 5 33 2.28515625 30.96484375 C-0.53971995 27.29974796 -0.58765247 24.61110503 -0.3125 20.1875 C-0.27866211 19.14819336 -0.27866211 19.14819336 -0.24414062 18.08789062 C-0.18562661 16.39098427 -0.0959548 14.69520139 0 13 C-1.65 13 -3.3 13 -5 13 C-5 11.02 -5 9.04 -5 7 C-3.35 7 -1.7 7 0 7 C0 4.69 0 2.38 0 0 Z " fill="#3C4042" transform="translate(202,100)"/>
<path d="M0 0 C0 2.64 0 5.28 0 8 C-0.928125 7.938125 -1.85625 7.87625 -2.8125 7.8125 C-5.87285972 7.73781298 -5.87285972 7.73781298 -7.65625 9.03125 C-9.69896461 12.02406443 -9.57277939 15.17704921 -9.6875 18.6875 C-9.72166016 19.38939453 -9.75582031 20.09128906 -9.79101562 20.81445312 C-9.87329947 22.54241387 -9.9383324 24.27118072 -10 26 C-12.31 26 -14.62 26 -17 26 C-17 17.75 -17 9.5 -17 1 C-14.36 1 -11.72 1 -9 1 C-6.04335481 -0.4783226 -3.25770263 -0.06032783 0 0 Z " fill="#3B3E40" transform="translate(88,106)"/>
<path d="M0 0 C1.98 0 3.96 0 6 0 C6 11.88 6 23.76 6 36 C3.69 36 1.38 36 -1 36 C-1.02465098 31.03377651 -1.04283649 26.06758834 -1.05493164 21.10131836 C-1.0599719 19.41055684 -1.06680405 17.71979971 -1.07543945 16.02905273 C-1.08751857 13.60399293 -1.09323123 11.17899056 -1.09765625 8.75390625 C-1.10281754 7.99348526 -1.10797882 7.23306427 -1.11329651 6.44960022 C-1.11349238 4.6326743 -1.06197277 2.81586873 -1 1 C-0.67 0.67 -0.34 0.34 0 0 Z " fill="#FABB07" transform="translate(267,96)"/>
<path d="M0 0 C2.5 0.125 2.5 0.125 3.5 1.125 C3.58851529 3.71859322 3.61525945 6.28539691 3.59765625 8.87890625 C3.5962413 9.65435287 3.59482635 10.4297995 3.59336853 11.22874451 C3.58775345 13.71503494 3.57519846 16.2012366 3.5625 18.6875 C3.55748694 20.36913933 3.5529237 22.05078006 3.54882812 23.73242188 C3.53777913 27.86331566 3.52050445 31.99414276 3.5 36.125 C1.19 36.125 -1.12 36.125 -3.5 36.125 C-3.52465098 31.15877651 -3.54283649 26.19258834 -3.55493164 21.22631836 C-3.5599719 19.53555684 -3.56680405 17.84479971 -3.57543945 16.15405273 C-3.58751857 13.72899293 -3.59323123 11.30399056 -3.59765625 8.87890625 C-3.60281754 8.11848526 -3.60797882 7.35806427 -3.61329651 6.57460022 C-3.61349238 4.7576743 -3.56197277 2.94086873 -3.5 1.125 C-2.5 0.125 -2.5 0.125 0 0 Z " fill="#F7BC12" transform="translate(282.5,95.875)"/>
<path d="M0 0 C0 0.66 0 1.32 0 2 C-0.99 2.495 -0.99 2.495 -2 3 C-2 3.66 -2 4.32 -2 5 C-2.99 5.33 -3.98 5.66 -5 6 C-5.33 6.66 -5.66 7.32 -6 8 C-3.69 8 -1.38 8 1 8 C1 8.99 1 9.98 1 11 C2.32 11.66 3.64 12.32 5 13 C5.99 12.01 6.98 11.02 8 10 C8 10.99 8 11.98 8 13 C8.99 13 9.98 13 11 13 C10.87625 11.8553125 10.87625 11.8553125 10.75 10.6875 C10.8325 9.800625 10.915 8.91375 11 8 C13 6.375 13 6.375 15 5 C15 4.01 15 3.02 15 2 C14.01 2 13.02 2 12 2 C12 1.34 12 0.68 12 0 C15.95820859 0.56545837 18.6659053 1.80902348 22 4 C21.734375 5.89453125 21.734375 5.89453125 21 8 C19.328125 8.94921875 19.328125 8.94921875 17.25 9.6875 C12.61357104 11.74813509 11.10941153 14.584439 9.0078125 19.07421875 C8 21 8 21 6 22 C3.49276962 19.97033731 2.9099023 18.72470147 1.875 15.5625 C0.87104273 12.97305831 0.21569741 12.13226365 -2.19140625 10.65625 C-4.43804601 9.67180691 -6.67646944 8.78425245 -9 8 C-8.875 5.6875 -8.875 5.6875 -8 3 C-3.13793103 0 -3.13793103 0 0 0 Z " fill="#F5BC18" transform="translate(234,27)"/>
<path d="M0 0 C1.32 0.33 2.64 0.66 4 1 C4.061875 1.61875 4.12375 2.2375 4.1875 2.875 C4.828919 5.27761141 4.828919 5.27761141 7.5625 6.25 C8.366875 6.4975 9.17125 6.745 10 7 C10 8.32 10 9.64 10 11 C8.35666496 12.03789581 6.68756133 13.03567924 5 14 C3.67206394 16.06700655 3.67206394 16.06700655 3 18 C1.0625 17.25 1.0625 17.25 -1 16 C-1.144375 15.34 -1.28875 14.68 -1.4375 14 C-1.623125 13.34 -1.80875 12.68 -2 12 C-4.49034386 10.70339566 -4.49034386 10.70339566 -7 10 C-6.67 8.68 -6.34 7.36 -6 6 C-5.38125 5.938125 -4.7625 5.87625 -4.125 5.8125 C-1.72238859 5.171081 -1.72238859 5.171081 -0.75 2.4375 C-0.5025 1.633125 -0.255 0.82875 0 0 Z " fill="#F5BC15" transform="translate(284,24)"/>
<path d="M0 0 C0.99 0 1.98 0 3 0 C3.22331199 1.58129029 3.42804644 3.16521089 3.625 4.75 C3.79902344 6.07257813 3.79902344 6.07257813 3.9765625 7.421875 C4.00251297 10.27642663 3.58906271 11.65049474 2 14 C-2.8993394 16.38992166 -7.68050971 16.21277961 -13 16 C-13.33 16.66 -13.66 17.32 -14 18 C-14.24954005 16.56589632 -14.47392642 15.12739928 -14.6875 13.6875 C-14.81511719 12.88699219 -14.94273437 12.08648437 -15.07421875 11.26171875 C-15 9 -15 9 -13.51953125 7.20703125 C-13.01808594 6.80871094 -12.51664063 6.41039063 -12 6 C-11.01 6.33 -10.02 6.66 -9 7 C-9 8.32 -9 9.64 -9 11 C-6.03 11 -3.06 11 0 11 C0 9.35 0 7.7 0 6 C0.66 6 1.32 6 2 6 C1.67 5.34 1.34 4.68 1 4 C0.01 4.495 0.01 4.495 -1 5 C-0.67 3.35 -0.34 1.7 0 0 Z " fill="#F9BB08" transform="translate(250,107)"/>
<path d="M0 0 C0.66 0 1.32 0 2 0 C1.48301858 2.32641638 0.85766526 4.31629943 -0.125 6.5 C-1.07733681 9.22096232 -0.98315966 10.34546892 0 13 C0.66 13 1.32 13 2 13 C2.33 11.35 2.66 9.7 3 8 C3.99 8 4.98 8 6 8 C6 8.66 6 9.32 6 10 C6.99 10 7.98 10 9 10 C10 13 10 13 11 16 C10.34 16 9.68 16 9 16 C9 17.65 9 19.3 9 21 C6.03 21 3.06 21 0 21 C-0.33 19.68 -0.66 18.36 -1 17 C-2.32 17 -3.64 17 -5 17 C-5.33 17.66 -5.66 18.32 -6 19 C-5.39124245 14.39583374 -4.15277044 10.43516676 -2.4375 6.125 C-1.75494141 4.39636719 -1.75494141 4.39636719 -1.05859375 2.6328125 C-0.70925781 1.76398438 -0.35992187 0.89515625 0 0 Z M4 10 C3.01 13.3 2.02 16.6 1 20 C3.31 20 5.62 20 8 20 C7.71872579 18.51882199 7.42466268 17.04006751 7.125 15.5625 C6.88136719 14.32693359 6.88136719 14.32693359 6.6328125 13.06640625 C6.42398438 12.38449219 6.21515625 11.70257813 6 11 C5.34 10.67 4.68 10.34 4 10 Z " fill="#F2BB25" transform="translate(241,97)"/>
<path d="M0 0 C2.31 0 4.62 0 7 0 C9.42857143 7.42857143 9.42857143 7.42857143 8 11 C7.01 11 6.02 11 5 11 C4.34 10.34 3.68 9.68 3 9 C2.5978125 10.2065625 2.5978125 10.2065625 2.1875 11.4375 C1.795625 12.283125 1.40375 13.12875 1 14 C0.01 14.33 -0.98 14.66 -2 15 C-3.11904992 11.54111843 -3.14195123 10.30241785 -1.5625 6.9375 C-1.046875 5.968125 -0.53125 4.99875 0 4 C0 2.68 0 1.36 0 0 Z " fill="#F8BB05" transform="translate(242,96)"/>
<path d="M0 0 C1.98 0 3.96 0 6 0 C6 10.56 6 21.12 6 32 C5.67 32 5.34 32 5 32 C4.67 22.43 4.34 12.86 4 3 C3.01 2.67 2.02 2.34 1 2 C1 3.32 1 4.64 1 6 C1.66 6.33 2.32 6.66 3 7 C2.68289063 7.75539063 2.36578125 8.51078125 2.0390625 9.2890625 C0.63099364 14.31787984 0.53601634 19.17551401 0.375 24.375 C0.33632813 25.39722656 0.29765625 26.41945313 0.2578125 27.47265625 C0.16402036 29.98159597 0.07832121 32.49053764 0 35 C1.98 35 3.96 35 6 35 C6 35.33 6 35.66 6 36 C3.69 36 1.38 36 -1 36 C-1.02465098 31.03377651 -1.04283649 26.06758834 -1.05493164 21.10131836 C-1.0599719 19.41055684 -1.06680405 17.71979971 -1.07543945 16.02905273 C-1.08751857 13.60399293 -1.09323123 11.17899056 -1.09765625 8.75390625 C-1.10281754 7.99348526 -1.10797882 7.23306427 -1.11329651 6.44960022 C-1.11349238 4.6326743 -1.06197277 2.81586873 -1 1 C-0.67 0.67 -0.34 0.34 0 0 Z " fill="#F6BD22" transform="translate(267,96)"/>
<path d="M0 0 C2.87556602 1.64991493 4.82690092 3.32207661 6.5 6.25 C5.51 6.25 4.52 6.25 3.5 6.25 C3.5 5.59 3.5 4.93 3.5 4.25 C2.18 4.58 0.86 4.91 -0.5 5.25 C-0.5 4.26 -0.5 3.27 -0.5 2.25 C-1.49 3.735 -1.49 3.735 -2.5 5.25 C-4.975 4.755 -4.975 4.755 -7.5 4.25 C-7.83 2.93 -8.16 1.61 -8.5 0.25 C-12.87934119 0.76958285 -17.18803391 1.30675742 -21.5 2.25 C-16.17690344 -3.58005813 -6.82675481 -3.2297263 0 0 Z " fill="#4884E5" transform="translate(457.5,34.75)"/>
<path d="M0 0 C2.0107571 0.45481411 4.00897656 0.96537334 6 1.5 C11.7873059 2.8930058 16.20978369 3.13555698 22 2 C23.35334591 1.80666487 24.70747737 1.61871061 26.0625 1.4375 C27.031875 1.293125 28.00125 1.14875 29 1 C29.495 1.99 29.495 1.99 30 3 C27.69 3 25.38 3 23 3 C23 3.66 23 4.32 23 5 C15.90565767 5.09733092 9.01805857 5.10087193 2 4 C1.67 4.66 1.34 5.32 1 6 C0.67 5.67 0.34 5.34 0 5 C-0.66 5.66 -1.32 6.32 -2 7 C-2 6.34 -2 5.68 -2 5 C-3.32 5.33 -4.64 5.66 -6 6 C-4 4 -2 2 0 0 Z " fill="#5183D7" transform="translate(433,80)"/>
<path d="M0 0 C0 0.99 0 1.98 0 3 C2.44496043 4.71711243 2.44496043 4.71711243 5 6 C4.67 8.97 4.34 11.94 4 15 C-3.23214286 9.10714286 -3.23214286 9.10714286 -5 5 C-3.35 3.35 -1.7 1.7 0 0 Z " fill="#4881EB" transform="translate(354,120)"/>
<path d="M0 0 C1.32 0.33 2.64 0.66 4 1 C3.67 1.66 3.34 2.32 3 3 C2.01 3 1.02 3 0 3 C0.99 5.31 1.98 7.62 3 10 C1.35 10 -0.3 10 -2 10 C-2.66 11.98 -3.32 13.96 -4 16 C-5.65 16.33 -7.3 16.66 -9 17 C-7.8774654 14.72791794 -6.75208479 12.45732355 -5.625 10.1875 C-5.30789063 9.54490234 -4.99078125 8.90230469 -4.6640625 8.24023438 C-3.23541389 5.36805539 -1.78214527 2.6732179 0 0 Z " fill="#F4BA1E" transform="translate(263,38)"/>
<path d="M0 0 C0.96755422 2.55503839 1.1589889 3.62813894 0.06640625 6.18359375 C-3.37233862 11.33724515 -6.97015863 15.87612875 -13 18 C-15.2421875 17.6171875 -15.2421875 17.6171875 -17 17 C-12.26315789 14.10526316 -12.26315789 14.10526316 -9.8125 13.125 C-7.2782428 11.55201277 -6.94571176 9.76958445 -6 7 C-4 4 -4 4 -1.875 3.3125 C-1.25625 3.209375 -0.6375 3.10625 0 3 C0 2.01 0 1.02 0 0 Z " fill="#4A82DF" transform="translate(414,88)"/>
<path d="M0 0 C1.89596488 2.84394732 2.96968262 5.28930574 4.1640625 8.47265625 C4.56367188 9.53677734 4.96328125 10.60089844 5.375 11.69726562 C5.99375 13.36305664 5.99375 13.36305664 6.625 15.0625 C7.25535156 16.7340918 7.25535156 16.7340918 7.8984375 18.43945312 C11 26.74217482 11 26.74217482 11 29 C10.34 29 9.68 29 9 29 C8.34 26.03 7.68 23.06 7 20 C6.01 20 5.02 20 4 20 C3.67 16.37 3.34 12.74 3 9 C2.01 9 1.02 9 0 9 C0 6.03 0 3.06 0 0 Z " fill="#F3BA27" transform="translate(250,98)"/>
<path d="M0 0 C3.48331435 3.01887244 4.79157144 5.56909529 6 10 C5.01 10.99 4.02 11.98 3 13 C1.68 10.36 0.36 7.72 -1 5 C-1.66 6.65 -2.32 8.3 -3 10 C-3.66 10 -4.32 10 -5 10 C-3.84414715 6.08788267 -2.64465038 3.1254959 0 0 Z " fill="#F5BD1C" transform="translate(240,16)"/>
<path d="M0 0 C3.3 0.33 6.6 0.66 10 1 C7.9957983 5.0084034 6.50944037 6.41409657 3 9 C-0.0279691 5.59353476 0 4.9819505 0 0 Z " fill="#3F81F8" transform="translate(338,114)"/>
<path d="M0 0 C0.67804688 0.22816406 1.35609375 0.45632812 2.0546875 0.69140625 C10.98640557 3.4500948 18.23258152 3.46082309 27 0 C27.99 0.99 28.98 1.98 30 3 C27.02148438 3.34179688 27.02148438 3.34179688 24.04296875 3.68359375 C21.80603607 3.97170735 21.80603607 3.97170735 19 5 C11.42630547 5.49569081 4.35264924 4.82189539 -3 3 C-2.01 2.01 -1.02 1.02 0 0 Z " fill="#4D82D8" transform="translate(327,80)"/>
<path d="M0 0 C0.75 1.625 0.75 1.625 1 4 C-1.39395697 8.32753759 -4.41871228 11.61767271 -8 15 C-8.66 14.67 -9.32 14.34 -10 14 C-9.34 13.01 -8.68 12.02 -8 11 C-7.34 11 -6.68 11 -6 11 C-5.73067479 6.34947128 -5.73067479 6.34947128 -7 2 C-6.01 2 -5.02 2 -4 2 C-4 2.66 -4 3.32 -4 4 C-3.34 4 -2.68 4 -2 4 C-1.34 2.68 -0.68 1.36 0 0 Z " fill="#4C82E1" transform="translate(414,32)"/>
<path d="M0 0 C0.66 0.33 1.32 0.66 2 1 C-1.63 4.63 -5.26 8.26 -9 12 C-11.17766075 7.64467851 -11.03039555 6.53374042 -10 2 C-9.01 2.99 -8.02 3.98 -7 5 C-6.67 4.34 -6.34 3.68 -6 3 C-5.01 3.33 -4.02 3.66 -3 4 C-3 3.34 -3 2.68 -3 2 C-2.01 1.34 -1.02 0.68 0 0 Z " fill="#4882E1" transform="translate(419,144)"/>
<path d="M0 0 C1.65 0.33 3.3 0.66 5 1 C1.32167983 5.52615993 -2.41086363 9.39424999 -7 13 C-7 11.68 -7 10.36 -7 9 C-6.01 9 -5.02 9 -4 9 C-3.67 6.69 -3.34 4.38 -3 2 C-2.01 2 -1.02 2 0 2 C0 1.34 0 0.68 0 0 Z " fill="#4782E2" transform="translate(428,131)"/>
<path d="M0 0 C3.79303725 1.00193437 6.71536341 1.81024227 10 4 C8.515 6.475 8.515 6.475 7 9 C3.17475764 7.549046 1.80909034 5.61818068 0 2 C0 1.34 0 0.68 0 0 Z " fill="#F2BD1D" transform="translate(259,81)"/>
<path d="M0 0 C1.53760842 3.07521683 0.36599236 5.34675118 -0.4375 8.625 C-0.72496094 9.81351563 -1.01242187 11.00203125 -1.30859375 12.2265625 C-1.53675781 13.14179687 -1.76492188 14.05703125 -2 15 C-1.34 15 -0.68 15 0 15 C2.14285714 22.42857143 2.14285714 22.42857143 3 26 C-0.86282177 22.52346041 -2.71638432 19.53044117 -3.30078125 14.31640625 C-3.32438755 8.76892501 -3.11896041 4.80839729 0 0 Z " fill="#4D81D4" transform="translate(429,43)"/>
<path d="M0 0 C0 0.66 0 1.32 0 2 C-0.99 2.495 -0.99 2.495 -2 3 C-2 3.66 -2 4.32 -2 5 C-2.99 5.33 -3.98 5.66 -5 6 C-5.33 6.66 -5.66 7.32 -6 8 C-3.69 8 -1.38 8 1 8 C0.67 8.99 0.34 9.98 0 11 C-2.97 10.01 -5.94 9.02 -9 8 C-8.875 5.6875 -8.875 5.6875 -8 3 C-3.13793103 0 -3.13793103 0 0 0 Z " fill="#F3C11C" transform="translate(234,27)"/>
<path d="M0 0 C4.51161357 1.9964624 7.27636874 4.92720155 10 9 C10.875 12.4375 10.875 12.4375 11 15 C10.360625 14.175 9.72125 13.35 9.0625 12.5 C8.381875 11.675 7.70125 10.85 7 10 C6.67 10 6.34 10 6 10 C5.67 11.32 5.34 12.64 5 14 C4.67 13.67 4.34 13.34 4 13 C4.061875 11.72125 4.12375 10.4425 4.1875 9.125 C4.27992773 6.97447041 4.27992773 6.97447041 4 5 C2.11922127 3.08743288 2.11922127 3.08743288 0 2 C0 1.34 0 0.68 0 0 Z " fill="#4B81DB" transform="translate(404,9)"/>
<path d="M0 0 C0.33 0.66 0.66 1.32 1 2 C0.69578125 2.74894531 0.3915625 3.49789062 0.078125 4.26953125 C-1.1073072 7.27176716 -1.26753327 9.4745283 -1.25 12.6875 C-1.25515625 13.64011719 -1.2603125 14.59273437 -1.265625 15.57421875 C-1.23627741 18.18101364 -1.23627741 18.18101364 1 20 C1.39764263 21.98821313 1.73775349 23.98944339 2 26 C-2.91724138 21.24137931 -2.91724138 21.24137931 -3.203125 16.953125 C-3.21859375 15.73109375 -3.2340625 14.5090625 -3.25 13.25 C-3.27578125 12.03828125 -3.3015625 10.8265625 -3.328125 9.578125 C-2.97479348 5.7251289 -1.93394605 3.31824428 0 0 Z " fill="#5384D5" transform="translate(376,72)"/>
<path d="M0 0 C3.34373475 0.55728913 6.03312999 1.35173889 9 3 C9 4.32 9 5.64 9 7 C4.545 8.485 4.545 8.485 0 10 C0 9.34 0 8.68 0 8 C2.64738916 6.5393715 3.89448334 6 7 6 C7 5.34 7 4.68 7 4 C5.35 3.67 3.7 3.34 2 3 C1.67 3.66 1.34 4.32 1 5 C0.67 3.35 0.34 1.7 0 0 Z " fill="#E9BE25" transform="translate(285,59)"/>
<path d="M0 0 C0.66 0 1.32 0 2 0 C0.69041436 5.40204077 -3.43303964 9.08799755 -8 12 C-8.99 11.67 -9.98 11.34 -11 11 C-9.68 10.34 -8.36 9.68 -7 9 C-7.33 7.68 -7.66 6.36 -8 5 C-6.02 5 -4.04 5 -2 5 C-2 4.01 -2 3.02 -2 2 C-1.34 2 -0.68 2 0 2 C0 1.34 0 0.68 0 0 Z " fill="#4E82DE" transform="translate(465,63)"/>
<path d="M0 0 C1.33332095 2.6666419 0.67102033 4.16680303 0 7 C0.928125 7.2165625 0.928125 7.2165625 1.875 7.4375 C4 8 4 8 6 9 C6 10.65 6 12.3 6 14 C-0.61491061 8.97404964 -0.61491061 8.97404964 -2.0625 5.3125 C-2 3 -2 3 0 0 Z " fill="#4F83DC" transform="translate(423,90)"/>
<path d="M0 0 C0 0.66 0 1.32 0 2 C-0.969375 2.37125 -1.93875 2.7425 -2.9375 3.125 C-6.31140969 4.71052362 -6.31140969 4.71052362 -6.875 8.1875 C-6.91625 9.115625 -6.9575 10.04375 -7 11 C-7.66 10.67 -8.32 10.34 -9 10 C-9 9.01 -9 8.02 -9 7 C-10.32 6.34 -11.64 5.68 -13 5 C-11.21046815 4.16209211 -9.41830305 3.32980604 -7.625 2.5 C-6.62726563 2.0359375 -5.62953125 1.571875 -4.6015625 1.09375 C-2 0 -2 0 0 0 Z " fill="#F6BE19" transform="translate(253,55)"/>
<path d="M0 0 C1.32 0 2.64 0 4 0 C3.65120368 3.25543229 2.97866739 4.01873107 0.4375 6.25 C-0.366875 6.8275 -1.17125 7.405 -2 8 C-2.66 7.34 -3.32 6.68 -4 6 C-3.34 4.68 -2.68 3.36 -2 2 C-1.34 2 -0.68 2 0 2 C0 1.34 0 0.68 0 0 Z " fill="#383A3D" transform="translate(110,125)"/>
<path d="M0 0 C0.99 0.33 1.98 0.66 3 1 C3 1.66 3 2.32 3 3 C3.99 3.33 4.98 3.66 6 4 C4.68 4 3.36 4 2 4 C1.67 4.66 1.34 5.32 1 6 C0.67 5.67 0.34 5.34 0 5 C-0.66 5.66 -1.32 6.32 -2 7 C-2 6.34 -2 5.68 -2 5 C-3.32 5.33 -4.64 5.66 -6 6 C-4 4 -2 2 0 0 Z " fill="#4B85E1" transform="translate(433,80)"/>
<path d="M0 0 C3.875 1.75 3.875 1.75 5 4 C4.01 4.33 3.02 4.66 2 5 C2 5.66 2 6.32 2 7 C0.02 6.34 -1.96 5.68 -4 5 C-2.68 3.35 -1.36 1.7 0 0 Z " fill="#4784E1" transform="translate(416,103)"/>
<path d="M0 0 C2.48527616 0.41421269 4.5934637 0.77570411 6.8125 2 C9.50476929 3.23075167 11.80459736 3.4146141 14.75 3.625 C16.22726562 3.73714844 16.22726562 3.73714844 17.734375 3.8515625 C18.48203125 3.90054688 19.2296875 3.94953125 20 4 C20 4.33 20 4.66 20 5 C5.93403979 5.56347318 5.93403979 5.56347318 1 2 C0.67 1.34 0.34 0.68 0 0 Z " fill="#5382DB" transform="translate(434,71)"/>
<path d="M0 0 C1.175625 0.5259375 1.175625 0.5259375 2.375 1.0625 C4.95357601 2.30300466 4.95357601 2.30300466 7.3125 1.125 C7.869375 0.75375 8.42625 0.3825 9 0 C7.35 1.98 5.7 3.96 4 6 C0.83884224 4.63016497 0.0072908 4.0109362 -2 1 C-1.34 0.67 -0.68 0.34 0 0 Z " fill="#4E82DC" transform="translate(391,165)"/>
<path d="M0 0 C6.52307692 0.61538462 6.52307692 0.61538462 8.9375 2.5625 C9.288125 3.036875 9.63875 3.51125 10 4 C9.67 4.66 9.34 5.32 9 6 C8.34 5.34 7.68 4.68 7 4 C4.31160615 3.73008094 1.70858064 3.91262643 -1 4 C-0.67 2.68 -0.34 1.36 0 0 Z " fill="#4683E1" transform="translate(347,36)"/>
<path d="M0 0 C0.33 0.66 0.66 1.32 1 2 C1.66 2 2.32 2 3 2 C3 3.32 3 4.64 3 6 C1.35 6 -0.3 6 -2 6 C-2.33 4.35 -2.66 2.7 -3 1 C-2.01 0.67 -1.02 0.34 0 0 Z " fill="#F9BC07" transform="translate(258,125)"/>
<path d="M0 0 C0.66 0.33 1.32 0.66 2 1 C2.33 1.99 2.66 2.98 3 4 C5.00016466 5.20882096 5.00016466 5.20882096 7 6 C7 6.66 7 7.32 7 8 C3.59687262 6.94124926 0.98646769 5.99097846 -2 4 C-2 3.01 -2 2.02 -2 1 C-1.34 0.67 -0.68 0.34 0 0 Z " fill="#EEBE2B" transform="translate(237,61)"/>
<path d="M0 0 C0.33 0 0.66 0 1 0 C1.48990279 5.06232884 -0.2893678 9.32630846 -2 14 C-2.33 14 -2.66 14 -3 14 C-3.29341888 8.32723489 -3.00559652 5.00932754 0 0 Z " fill="#5485DA" transform="translate(316,91)"/>
<path d="M0 0 C1.98 0 3.96 0 6 0 C5.06725891 1.12894876 4.12859878 2.25300876 3.1875 3.375 C2.66542969 4.00148437 2.14335937 4.62796875 1.60546875 5.2734375 C0 7 0 7 -3 9 C-2.690625 8.443125 -2.38125 7.88625 -2.0625 7.3125 C-0.94238179 4.87459567 -0.43962636 2.63775814 0 0 Z " fill="#4F83D9" transform="translate(403,156)"/>
<path d="M0 0 C-1.33333333 0.66666667 -2.66666667 1.33333333 -4 2 C-4.598125 2.350625 -5.19625 2.70125 -5.8125 3.0625 C-8.80912721 4.3467688 -11.77763576 4.62818874 -15 5 C-11.52013327 -0.2198001 -5.92840631 -0.28919055 0 0 Z " fill="#4E86DC" transform="translate(397,6)"/>
<path d="M0 0 C2.31 0 4.62 0 7 0 C7 1.98 7 3.96 7 6 C4.525 5.01 4.525 5.01 2 4 C2 3.34 2 2.68 2 2 C1.34 1.34 0.68 0.68 0 0 Z " fill="#424345" transform="translate(81,106)"/>
<path d="M0 0 C0.66 0 1.32 0 2 0 C2.66 1.98 3.32 3.96 4 6 C3.01 6.66 2.02 7.32 1 8 C0.67 7.01 0.34 6.02 0 5 C-0.99 5.495 -0.99 5.495 -2 6 C-1.34 4.02 -0.68 2.04 0 0 Z " fill="#4D7FDA" transform="translate(363,91)"/>
<path d="M0 0 C1.65 0 3.3 0 5 0 C4.54625 0.4125 4.0925 0.825 3.625 1.25 C1.94049626 3.06408095 1.00734029 4.75285627 0 7 C-1.32 6.34 -2.64 5.68 -4 5 C-3.67 4.34 -3.34 3.68 -3 3 C-2.01 3.33 -1.02 3.66 0 4 C0 2.68 0 1.36 0 0 Z " fill="#ECBD2B" transform="translate(287,35)"/>
<path d="M0 0 C0 0.33 0 0.66 0 1 C-0.68707031 1.04898438 -1.37414062 1.09796875 -2.08203125 1.1484375 C-3.43361328 1.26058594 -3.43361328 1.26058594 -4.8125 1.375 C-5.70582031 1.44460937 -6.59914063 1.51421875 -7.51953125 1.5859375 C-10.24398499 1.86645036 -10.24398499 1.86645036 -13 4 C-15.1875 3.625 -15.1875 3.625 -17 3 C-11.42531458 -0.61601216 -6.39432346 -0.30720059 0 0 Z " fill="#5683D3" transform="translate(453,33)"/>
<path d="M0 0 C2.89932357 2.39509338 3.50168276 4.31245243 4 8 C3.34 8 2.68 8 2 8 C2 7.01 2 6.02 2 5 C1.01 5 0.02 5 -1 5 C-1.33 4.01 -1.66 3.02 -2 2 C-1.34 1.34 -0.68 0.68 0 0 Z " fill="#4785E2" transform="translate(411,72)"/>
<path d="M0 0 C0.33 0 0.66 0 1 0 C0.67 2.97 0.34 5.94 0 9 C-1.65 9 -3.3 9 -5 9 C-4.0409375 7.88625 -4.0409375 7.88625 -3.0625 6.75 C-1.21666593 4.2888879 -0.43930826 2.96533074 0 0 Z " fill="#4A7EDE" transform="translate(448,124)"/>
<path d="M0 0 C0.99 0 1.98 0 3 0 C1.60667426 3.36720387 0.0210714 4.9859524 -3 7 C-3 5.35 -3 3.7 -3 2 C-2.01 2 -1.02 2 0 2 C0 1.34 0 0.68 0 0 Z " fill="#315DEC" transform="translate(345,115)"/>
<path d="M0 0 C2.31 0 4.62 0 7 0 C7 0.99 7 1.98 7 3 C5.35 3.33 3.7 3.66 2 4 C1.34 2.68 0.68 1.36 0 0 Z " fill="#FBD311" transform="translate(242,96)"/>
<path d="M0 0 C2.31 0.33 4.62 0.66 7 1 C7 2.98 7 4.96 7 7 C5.83040013 6.02433888 4.66438823 5.044375 3.5 4.0625 C2.8503125 3.51722656 2.200625 2.97195312 1.53125 2.41015625 C1.0259375 1.94480469 0.520625 1.47945312 0 1 C0 0.67 0 0.34 0 0 Z " fill="#4C7CDA" transform="translate(351,128)"/>
<path d="M0 0 C1.32 0.66 2.64 1.32 4 2 C2.35 3.32 0.7 4.64 -1 6 C-1.625 4.125 -1.625 4.125 -2 2 C-1.34 1.34 -0.68 0.68 0 0 Z " fill="#4A83E8" transform="translate(358,100)"/>
<path d="M0 0 C4.75 0.875 4.75 0.875 7 2 C7 2.66 7 3.32 7 4 C5.35 3.67 3.7 3.34 2 3 C1.67 3.66 1.34 4.32 1 5 C0.67 3.35 0.34 1.7 0 0 Z " fill="#F2BD1D" transform="translate(285,59)"/>
<path d="M0 0 C1.98 1.65 3.96 3.3 6 5 C5.34 6.32 4.68 7.64 4 9 C3.67 9 3.34 9 3 9 C2 6 1 3 0 0 Z " fill="#4A83D8" transform="translate(433,120)"/>
<path d="M0 0 C0.66 0.33 1.32 0.66 2 1 C1.01 1.33 0.02 1.66 -1 2 C-2.21869929 4.50447516 -2.21869929 4.50447516 -3 7 C-3.33 7 -3.66 7 -4 7 C-4 5.35 -4 3.7 -4 2 C-2.125 0.9375 -2.125 0.9375 0 0 Z " fill="#4883E5" transform="translate(405,111)"/>
</svg>
